<?xml version="1.0" encoding="UTF-8"?>
<svg id="_레이어_2" data-name="레이어 2" xmlns="http://www.w3.org/2000/svg" viewBox="0 0 40 40">
  <defs>
    <style>
      .cls-1 {
        fill: #d1d8e5;
        stroke-width: 0px;
      }
    </style>
  </defs>
  <g id="_레이어_4" data-name="레이어 4">
    <g>
      <path class="cls-1" d="m19,16.89h-1.3c-.55,0-1,.45-1,1s.45,1,1,1h1.3v9.18c0,.55.45,1,1,1s1-.45,1-1v-9.18c0-1.1-.9-2-2-2Z"/>
      <path class="cls-1" d="m20,11.69c-.83,0-1.49.67-1.49,1.49s.67,1.49,1.49,1.49,1.49-.67,1.49-1.49-.67-1.49-1.49-1.49Z"/>
      <path class="cls-1" d="m20,0C8.97,0,0,8.97,0,20s8.97,20,20,20,20-8.97,20-20S31.03,0,20,0Zm0,38c-9.93,0-18-8.08-18-18S10.07,2,20,2s18,8.08,18,18-8.07,18-18,18Z"/>
    </g>
  </g>
</svg>