<?xml version="1.0" encoding="UTF-8"?>
<svg id="_레이어_2" data-name="레이어 2" xmlns="http://www.w3.org/2000/svg" viewBox="0 0 41 41">
  <defs>
    <style>
      .cls-1 {
        fill: #2e66e9;
        stroke-width: 0px;
      }
    </style>
  </defs>
  <g id="_레이어_4" data-name="레이어 4">
    <g>
      <path class="cls-1" d="m5.5,26.66c-1.38,0-2.5-1.12-2.5-2.5V5.5c0-1.38,1.12-2.5,2.5-2.5h18.66c1.38,0,2.5,1.12,2.5,2.5,0,.83.67,1.5,1.5,1.5s1.5-.67,1.5-1.5c0-3.03-2.47-5.5-5.5-5.5H5.5C2.47,0,0,2.47,0,5.5v18.66c0,3.03,2.47,5.5,5.5,5.5.83,0,1.5-.67,1.5-1.5s-.67-1.5-1.5-1.5Z"/>
      <path class="cls-1" d="m35.5,11.34h-18.66c-3.03,0-5.5,2.47-5.5,5.5v18.66c0,3.03,2.47,5.5,5.5,5.5h18.66c3.03,0,5.5-2.47,5.5-5.5v-18.66c0-3.03-2.47-5.5-5.5-5.5Zm2.5,24.16c0,1.38-1.12,2.5-2.5,2.5h-18.66c-1.38,0-2.5-1.12-2.5-2.5v-18.66c0-1.38,1.12-2.5,2.5-2.5h18.66c1.38,0,2.5,1.12,2.5,2.5v18.66Z"/>
    </g>
  </g>
</svg>