<?xml version="1.0" encoding="UTF-8"?>
<svg id="_레이어_2" data-name="레이어 2" xmlns="http://www.w3.org/2000/svg" viewBox="0 0 41 41">
  <defs>
    <style>
      .cls-1 {
        fill: #2e66e9;
        stroke-width: 0px;
      }
    </style>
  </defs>
  <g id="_레이어_4" data-name="레이어 4">
    <g>
      <path class="cls-1" d="m20.5,0C9.2,0,0,9.2,0,20.5s9.2,20.5,20.5,20.5,20.5-9.2,20.5-20.5S31.8,0,20.5,0Zm0,38c-9.65,0-17.5-7.85-17.5-17.5S10.85,3,20.5,3s17.5,7.85,17.5,17.5-7.85,17.5-17.5,17.5Z"/>
      <path class="cls-1" d="m28.89,19h-6.89v-6.89c0-.83-.67-1.5-1.5-1.5s-1.5.67-1.5,1.5v6.89h-6.89c-.83,0-1.5.67-1.5,1.5s.67,1.5,1.5,1.5h6.89v6.89c0,.83.67,1.5,1.5,1.5s1.5-.67,1.5-1.5v-6.89h6.89c.83,0,1.5-.67,1.5-1.5s-.67-1.5-1.5-1.5Z"/>
    </g>
  </g>
</svg>