<?xml version="1.0" encoding="UTF-8"?>
<svg id="_레이어_2" data-name="레이어 2" xmlns="http://www.w3.org/2000/svg" viewBox="0 0 37.72 40">
  <defs>
    <style>
      .cls-1 {
        fill: #a7b3c6;
        stroke-width: 0px;
      }
    </style>
  </defs>
  <g id="_레이어_4" data-name="레이어 4">
    <g>
      <path class="cls-1" d="m18.86,19.93c-4.45,0-8.07-3.62-8.07-8.07v-3.78C10.78,3.62,14.41,0,18.86,0s8.07,3.62,8.07,8.07v3.78c0,4.45-3.62,8.07-8.07,8.07Zm0-17.93c-3.35,0-6.07,2.72-6.07,6.07v3.78c0,3.35,2.72,6.07,6.07,6.07s6.07-2.72,6.07-6.07v-3.78c0-3.35-2.72-6.07-6.07-6.07Z"/>
      <path class="cls-1" d="m34.8,40H2.91c-.86,0-1.67-.37-2.22-1.03-.55-.65-.79-1.51-.66-2.36l.95-5.84c.43-2.66,2.38-4.87,4.98-5.61l8.99-2.59c1.21-.3,2.44-.04,3.4.71.96.75,1.51,1.88,1.51,3.09v4.44c0,.55-.45,1-1,1s-1-.45-1-1v-4.44c0-.6-.27-1.15-.74-1.52-.47-.37-1.07-.5-1.65-.35l-8.95,2.58c-1.85.53-3.25,2.11-3.56,4.01l-.95,5.84c-.06.36.1.62.21.74.1.12.33.32.7.32h31.89c.37,0,.59-.2.7-.32.1-.12.26-.38.21-.74l-.95-5.87c-.31-1.89-1.69-3.46-3.53-4l-7.3-2.15c-.53-.16-.83-.71-.68-1.24.16-.53.71-.84,1.24-.68l7.3,2.15c2.57.76,4.51,2.95,4.94,5.6l.95,5.87c.14.84-.1,1.7-.66,2.35s-1.36,1.03-2.22,1.03Z"/>
    </g>
  </g>
</svg>