<svg xmlns="http://www.w3.org/2000/svg" xmlns:xlink="http://www.w3.org/1999/xlink" width="16" height="16" viewBox="0 0 16 16">
  <defs>
    <clipPath id="clip-path">
      <rect id="사각형_1838" data-name="사각형 1838" width="16" height="14.979" fill="none"/>
    </clipPath>
  </defs>
  <g id="그룹_925" data-name="그룹 925" transform="translate(-1227 -828)">
    <g id="사각형_1839" data-name="사각형 1839" transform="translate(1227 828)" fill="#fff" stroke="#707070" stroke-width="1" opacity="0">
      <rect width="16" height="16" stroke="none"/>
      <rect x="0.5" y="0.5" width="15" height="15" fill="none"/>
    </g>
    <g id="그룹_924" data-name="그룹 924" transform="translate(1227 828.511)">
      <g id="그룹_923" data-name="그룹 923" transform="translate(0 0)" clip-path="url(#clip-path)">
        <path id="패스_288" data-name="패스 288" d="M16,5.583h0v-2.2a2,2,0,0,0-2-2h-.955V.6a.6.6,0,1,0-1.2,0v.779H4.155V.6a.6.6,0,0,0-1.2,0v.779H2a2,2,0,0,0-2,2v9.6a2,2,0,0,0,2,2H14a2,2,0,0,0,2-2v-7.4Zm-14-3h.955v.89a.6.6,0,0,0,1.2,0v-.89h7.69v.89a.6.6,0,1,0,1.2,0v-.89H14a.8.8,0,0,1,.8.8v1.6H1.2v-1.6a.8.8,0,0,1,.8-.8m12,11.2H2a.8.8,0,0,1-.8-.8v-6.8H14.8v6.8a.8.8,0,0,1-.8.8" transform="translate(0 0)" fill="#b1b1b1"/>
      </g>
    </g>
  </g>
</svg>
