<?xml version="1.0" encoding="UTF-8"?>
<svg id="_레이어_2" data-name="레이어 2" xmlns="http://www.w3.org/2000/svg" xmlns:xlink="http://www.w3.org/1999/xlink" viewBox="0 0 255.4 221.34">
  <defs>
    <style>
      .cls-1 {
        fill: url(#_무제_그라디언트_29-2);
      }

      .cls-1, .cls-2, .cls-3, .cls-4, .cls-5, .cls-6, .cls-7, .cls-8, .cls-9, .cls-10, .cls-11 {
        stroke-width: 0px;
      }

      .cls-2 {
        fill: url(#_무제_그라디언트_26);
      }

      .cls-3 {
        fill: url(#_무제_그라디언트_39);
      }

      .cls-4 {
        fill: url(#_무제_그라디언트_42-2);
      }

      .cls-5 {
        fill: #fff;
      }

      .cls-6 {
        fill: #bbcff2;
      }

      .cls-7 {
        fill: url(#_무제_그라디언트_32);
      }

      .cls-8 {
        fill: url(#_무제_그라디언트_29);
      }

      .cls-9 {
        fill: url(#_무제_그라디언트_42);
      }

      .cls-10 {
        fill: #e1ecff;
      }

      .cls-11 {
        fill: #f8faff;
      }
    </style>
    <linearGradient id="_무제_그라디언트_26" data-name="무제 그라디언트 26" x1="125.53" y1="146.09" x2="125.53" y2="34.61" gradientUnits="userSpaceOnUse">
      <stop offset="0" stop-color="#f3f6ff"/>
      <stop offset="1" stop-color="#e6edff"/>
    </linearGradient>
    <linearGradient id="_무제_그라디언트_29" data-name="무제 그라디언트 29" x1="25.53" y1="159.03" x2="225.53" y2="159.03" gradientUnits="userSpaceOnUse">
      <stop offset="0" stop-color="#e9f0ff"/>
      <stop offset="1" stop-color="#e1ecff"/>
    </linearGradient>
    <linearGradient id="_무제_그라디언트_29-2" data-name="무제 그라디언트 29" x1="72.38" y1="196.5" x2="178.68" y2="196.5" xlink:href="#_무제_그라디언트_29"/>
    <linearGradient id="_무제_그라디언트_32" data-name="무제 그라디언트 32" x1="125.53" y1="192.22" x2="125.53" y2="171.98" gradientUnits="userSpaceOnUse">
      <stop offset="0" stop-color="#d2e0f9"/>
      <stop offset="1" stop-color="#c3d7f4"/>
    </linearGradient>
    <linearGradient id="_무제_그라디언트_42" data-name="무제 그라디언트 42" x1="58.53" y1="26.42" x2="192.53" y2="26.42" gradientUnits="userSpaceOnUse">
      <stop offset="0" stop-color="#c6d6f7"/>
      <stop offset="1" stop-color="#bbcff2"/>
    </linearGradient>
    <linearGradient id="_무제_그라디언트_39" data-name="무제 그라디언트 39" x1="63.57" y1="151.13" x2="187.49" y2="27.22" gradientUnits="userSpaceOnUse">
      <stop offset="0" stop-color="#fafcff"/>
      <stop offset="1" stop-color="#fff"/>
    </linearGradient>
    <linearGradient id="_무제_그라디언트_42-2" data-name="무제 그라디언트 42" x1="161.16" y1="134.71" x2="203.91" y2="134.71" xlink:href="#_무제_그라디언트_42"/>
  </defs>
  <g id="_레이어_1-2" data-name="레이어 1">
    <g>
      <circle class="cls-11" cx="125.53" cy="110.67" r="110.67"/>
      <g>
        <path class="cls-2" d="m35.53,34.61h180c5.52,0,10,4.48,10,10v101.48H25.53V44.61c0-5.52,4.48-10,10-10Z"/>
        <path class="cls-8" d="m25.53,146.09h200v15.89c0,5.52-4.48,10-10,10H35.53c-5.52,0-10-4.48-10-10v-15.89h0Z"/>
        <rect class="cls-1" x="72.38" y="192.22" width="106.29" height="8.56" rx="4.28" ry="4.28"/>
        <rect class="cls-7" x="102.2" y="171.98" width="46.67" height="20.24"/>
        <path class="cls-9" d="m63.53,20.57h124.01c2.76,0,5,2.24,5,5v6.7H58.53v-6.7c0-2.76,2.24-5,5-5Z"/>
        <rect class="cls-3" x="58.53" y="32.26" width="134.01" height="113.82"/>
        <circle class="cls-5" cx="67.02" cy="26.42" r="2.28"/>
        <circle class="cls-5" cx="75.27" cy="26.42" r="2.28"/>
        <circle class="cls-5" cx="83.52" cy="26.42" r="2.28"/>
        <circle class="cls-4" cx="182.53" cy="134.71" r="21.38"/>
        <path class="cls-5" d="m189.89,143.56c-.38,0-.77-.15-1.06-.44l-14.7-14.7c-.59-.59-.59-1.54,0-2.12s1.54-.59,2.12,0l14.7,14.7c.59.59.59,1.54,0,2.12-.29.29-.68.44-1.06.44Z"/>
        <path class="cls-5" d="m175.18,143.56c-.38,0-.77-.15-1.06-.44-.59-.59-.59-1.54,0-2.12l14.7-14.7c.59-.59,1.54-.59,2.12,0s.59,1.54,0,2.12l-14.7,14.7c-.29.29-.68.44-1.06.44Z"/>
      </g>
      <circle class="cls-6" cx="44.53" cy="9.33" r="3.33"/>
      <circle class="cls-6" cx="228.86" cy="190.22" r="3.33"/>
      <circle class="cls-10" cx="3.33" cy="55.76" r="3.33"/>
      <circle class="cls-10" cx="252.07" cy="134.71" r="3.33"/>
      <circle class="cls-10" cx="213.95" cy="12.29" r="3.33"/>
      <circle class="cls-10" cx="28.86" cy="206.11" r="3.33"/>
    </g>
  </g>
</svg>