<svg xmlns="http://www.w3.org/2000/svg" xmlns:xlink="http://www.w3.org/1999/xlink" width="16" height="16" viewBox="0 0 16 16">
  <defs>
    <clipPath id="clip-path">
      <rect id="사각형_1792" data-name="사각형 1792" width="16" height="15.986" transform="translate(0 0)" fill="#2e66e9"/>
    </clipPath>
  </defs>
  <g id="그룹_918" data-name="그룹 918" transform="translate(-560 -1166)">
    <rect id="사각형_1835" data-name="사각형 1835" width="16" height="16" transform="translate(560 1166)" fill="#fff" opacity="0"/>
    <g id="그룹_917" data-name="그룹 917" transform="translate(560 1166)">
      <g id="그룹_889" data-name="그룹 889" transform="translate(0 0)" clip-path="url(#clip-path)">
        <path id="패스_275" data-name="패스 275" d="M23.682,10.9a.607.607,0,0,0,.09.074c.01.006.021.011.031.017a.639.639,0,0,0,.072.038c.014.006.028.008.042.013a.593.593,0,0,0,.07.021.6.6,0,0,0,.237,0,.59.59,0,0,0,.07-.021c.014,0,.029-.007.042-.013a.622.622,0,0,0,.072-.038c.01-.006.021-.01.031-.017a.607.607,0,0,0,.09-.074l3.362-3.362a.6.6,0,0,0-.849-.849L24.707,9.023V.6a.6.6,0,1,0-1.2,0V9.023L21.169,6.685a.6.6,0,0,0-.849.849Z" transform="translate(-16.116 0)" fill="#2e66e9"/>
        <path id="패스_276" data-name="패스 276" d="M15.4,37.879a.6.6,0,0,0-.6.6v6.21a.4.4,0,0,1-.4.4H1.6a.4.4,0,0,1-.4-.4v-6.21a.6.6,0,1,0-1.2,0v6.21a1.6,1.6,0,0,0,1.6,1.6H14.4a1.6,1.6,0,0,0,1.6-1.6v-6.21a.6.6,0,0,0-.6-.6" transform="translate(0 -30.303)" fill="#2e66e9"/>
      </g>
    </g>
  </g>
</svg>
