<svg xmlns="http://www.w3.org/2000/svg" xmlns:xlink="http://www.w3.org/1999/xlink" width="14" height="14" viewBox="0 0 14 14">
  <defs>
    <clipPath id="clip-path">
      <rect id="사각형_2232" data-name="사각형 2232" width="14" height="14" transform="translate(0 0)" fill="#fc5c5c"/>
    </clipPath>
  </defs>
  <g id="그룹_1127" data-name="그룹 1127" transform="translate(13174 -3505)">
    <rect id="사각형_2233" data-name="사각형 2233" width="14" height="14" transform="translate(-13174 3505)" fill="#fff" opacity="0"/>
    <g id="그룹_1126" data-name="그룹 1126" transform="translate(-13174 3505)">
      <g id="그룹_1125" data-name="그룹 1125" transform="translate(0 0)" clip-path="url(#clip-path)">
        <path id="패스_455" data-name="패스 455" d="M8.018,7l5.771-5.771A.72.72,0,1,0,12.77.211L7,5.982,1.229.211A.72.72,0,0,0,.211,1.229L5.981,7,.211,12.771a.72.72,0,1,0,1.018,1.018L7,8.018l5.771,5.771a.72.72,0,1,0,1.018-1.018Z" transform="translate(0 0)" fill="#fc5c5c"/>
      </g>
    </g>
  </g>
</svg>
