<?xml version="1.0" encoding="UTF-8"?>
<svg id="_레이어_2" data-name="레이어 2" xmlns="http://www.w3.org/2000/svg" viewBox="0 0 109.42 94.65">
  <defs>
    <style>
      .cls-1 {
        fill: #dde1e8;
      }

      .cls-1, .cls-2, .cls-3 {
        stroke-width: 0px;
      }

      .cls-2 {
        fill: none;
      }

      .cls-3 {
        fill: #fff;
      }
    </style>
  </defs>
  <g id="_레이어_1-2" data-name="레이어 1">
    <g>
      <g>
        <path class="cls-2" d="m88.43,94.63c-.07,0-.13,0-.2-.02.07.01.13.01.2.02Z"/>
        <path class="cls-2" d="m90.52,94.05c-.06.05-.12.1-.19.14.07-.04.13-.09.19-.14Z"/>
        <path class="cls-2" d="m83.83,86.75l2.03,5.87s.02.04.03.06c0-.02-.02-.04-.03-.06l-2.03-5.87Z"/>
        <path class="cls-2" d="m90.87,93.74c-.06.06-.12.13-.18.18.06-.06.12-.12.18-.18Z"/>
        <path class="cls-2" d="m89.75,94.46c-.07.03-.14.05-.22.07.07-.02.14-.05.22-.07Z"/>
        <path class="cls-2" d="m88.71,94.65c.06,0,.13,0,.19-.01-.07,0-.15.01-.22.01.01,0,.02,0,.04,0Z"/>
        <path class="cls-2" d="m91.28,93.21c.08-.14.16-.29.22-.45l2.91-7.28-2.91,7.28c-.06.16-.14.31-.22.45Z"/>
        <path class="cls-2" d="m90.15,94.29c-.07.04-.13.08-.21.11.07-.03.14-.07.21-.11Z"/>
        <path class="cls-2" d="m89.33,94.58c-.07.02-.15.03-.22.04.07,0,.15-.03.22-.04Z"/>
        <path class="cls-2" d="m87.57,94.43c-.06-.02-.13-.05-.19-.07.06.03.12.05.19.07Z"/>
        <path class="cls-2" d="m86.8,93.97c-.05-.04-.11-.08-.16-.13.05.05.1.08.16.13Z"/>
        <path class="cls-2" d="m86.46,93.64s-.09-.09-.13-.14c.04.05.09.1.13.14Z"/>
        <path class="cls-2" d="m87.17,94.23c-.06-.03-.12-.06-.17-.1.06.04.12.07.17.1Z"/>
        <path class="cls-2" d="m96.08,81.31h0l11.44-4.58c.16-.06.31-.14.45-.22-.14.08-.29.16-.45.22l-11.44,4.58Z"/>
        <path class="cls-2" d="m86.16,93.24c-.03-.05-.07-.1-.1-.15.03.05.06.1.1.15Z"/>
        <path class="cls-2" d="m91.19,93.34c-.06.09-.11.17-.18.25.06-.08.12-.17.18-.25Z"/>
        <path class="cls-2" d="m88,94.56c-.07-.02-.13-.03-.2-.05.06.02.13.03.2.05Z"/>
        <path class="cls-1" d="m58.38,72.25H14.22c-3.63,0-5.72-4.13-3.58-7.06l6.43-8.76,8.03-10.94c1.77-2.42,5.38-2.42,7.15,0l6.11,8.33,3.25-4.43,11.6-15.82c2.56-3.49,7.77-3.49,10.34,0l11.6,15.82,7.24,9.88,13.07,4.53V10c0-5.52-4.48-10-10-10H10C4.48,0,0,4.48,0,10v60.48c0,5.52,4.48,10,10,10h68.48l-2.85-8.23h-17.25Z"/>
        <path class="cls-3" d="m77.78,61.82s.06-.03.09-.04c-.03.02-.06.03-.09.04Z"/>
        <path class="cls-3" d="m77.22,62.22s.06-.05.08-.07c-.03.02-.06.05-.08.07Z"/>
        <path class="cls-3" d="m76.27,64.66s0-.07-.01-.1c0,.03,0,.07.01.1Z"/>
        <path class="cls-3" d="m76.28,63.94s.01-.07.02-.11c0,.04-.01.07-.02.11Z"/>
        <path class="cls-3" d="m76.78,62.7s.02-.04.04-.05c-.01.02-.02.04-.04.05Z"/>
        <path class="cls-3" d="m76.47,63.26s.02-.04.03-.06c0,.02-.02.04-.03.06Z"/>
        <path class="cls-3" d="m79.48,61.5c.05,0,.1,0,.15.02-.05,0-.1-.01-.15-.02Z"/>
        <path class="cls-3" d="m79.13,61.47s-.04,0-.07,0c.04,0,.08,0,.12,0-.02,0-.04,0-.05,0Z"/>
        <path class="cls-3" d="m74.33,60.96c1.11-1.56,2.9-2.49,4.8-2.49h0c.66,0,1.31.11,1.94.33l1.33.46-7.24-9.88-11.6-15.82c-2.56-3.49-7.77-3.49-10.34,0l-11.6,15.82-3.25,4.43-6.11-8.33c-1.77-2.42-5.38-2.42-7.15,0l-8.03,10.94-6.43,8.76c-2.15,2.93-.06,7.06,3.58,7.06h61.41l-2.06-5.95c-.63-1.83-.36-3.77.76-5.34Z"/>
        <path class="cls-3" d="m78.44,61.56s0,0,0,0c0,0,0,0,0,0Z"/>
        <path class="cls-1" d="m107.39,71.09l-11.92-4.13-.73-.25-9.54-3.3-5.11-1.77c-.15-.05-.31-.09-.46-.12-.05,0-.1-.01-.15-.02-.1-.01-.2-.02-.3-.03-.04,0-.08,0-.12,0-.21,0-.42.03-.61.08,0,0,0,0,0,0-.2.05-.39.13-.57.22-.03.02-.06.03-.09.04-.17.09-.33.2-.48.32-.03.02-.06.05-.08.07-.15.13-.28.27-.4.43-.01.02-.02.04-.04.05-.11.16-.21.32-.29.5,0,.02-.02.04-.03.06-.08.18-.13.37-.17.57,0,.04-.01.07-.02.11-.03.2-.04.4-.03.61,0,.03,0,.07.01.1.02.22.06.44.14.66l2.4,6.93,2.67,7.72.17.5,2.17,6.27,2.03,5.87s.02.04.03.06c.05.14.11.28.18.41.03.05.06.1.1.15.05.09.11.18.17.26.04.05.09.1.13.14.06.07.12.14.18.2.05.05.1.08.16.13.07.05.13.11.2.16.06.04.12.07.17.1.07.04.14.09.21.12.06.03.12.05.19.07.08.03.15.06.23.09.06.02.13.03.2.05.08.02.16.04.24.05.07.01.13.01.2.02.08,0,.16.02.24.02.08,0,.15,0,.22-.01.07,0,.14,0,.21-.01.07,0,.15-.03.22-.04.07-.01.14-.02.2-.04.07-.02.14-.05.22-.07.07-.02.13-.04.19-.07.07-.03.14-.07.21-.11.06-.03.12-.06.18-.1.07-.04.13-.09.19-.14.06-.04.11-.08.17-.13.06-.06.12-.12.18-.18.05-.05.1-.09.14-.15.06-.08.12-.17.18-.25.03-.05.07-.09.1-.14.08-.14.16-.29.22-.45l2.91-7.28,1.67-4.16,11.44-4.58c.16-.06.31-.14.45-.22,2.11-1.26,1.88-4.57-.59-5.42Z"/>
        <path class="cls-3" d="m87.8,94.51c-.08-.02-.15-.06-.23-.09.08.03.15.06.23.09Z"/>
        <path class="cls-3" d="m89.53,94.54c-.07.02-.14.03-.2.04.07-.01.14-.02.2-.04Z"/>
        <path class="cls-3" d="m91.28,93.21s-.07.09-.1.14c.03-.05.07-.09.1-.14Z"/>
        <path class="cls-3" d="m91.01,93.59c-.04.05-.09.1-.14.15.05-.05.1-.09.14-.15Z"/>
        <path class="cls-3" d="m87.39,94.35c-.07-.04-.14-.08-.21-.12.07.04.14.09.21.12Z"/>
        <path class="cls-3" d="m88.23,94.61c-.08-.01-.16-.03-.24-.05.08.02.16.04.24.05Z"/>
        <path class="cls-3" d="m90.33,94.19c-.06.04-.12.07-.18.1.06-.03.12-.06.18-.1Z"/>
        <path class="cls-3" d="m89.94,94.39c-.06.03-.13.05-.19.07.07-.02.13-.04.19-.07Z"/>
        <path class="cls-3" d="m90.69,93.92c-.05.05-.11.08-.17.13.06-.04.11-.08.17-.13Z"/>
        <path class="cls-3" d="m88.67,94.65c-.08,0-.16-.01-.24-.02.08,0,.16.02.24.02Z"/>
        <path class="cls-3" d="m89.11,94.62c-.07,0-.14.01-.21.01.07,0,.14,0,.21-.01Z"/>
        <polygon class="cls-3" points="94.42 85.47 96.08 81.31 96.08 81.31 94.42 85.47"/>
        <path class="cls-3" d="m107.39,71.09c2.47.86,2.7,4.16.59,5.42,2.11-1.26,1.88-4.57-.59-5.42l-11.92-4.13h0l11.92,4.13Z"/>
        <path class="cls-3" d="m87,94.13c-.07-.05-.13-.1-.2-.16.07.05.13.11.2.16Z"/>
        <polygon class="cls-3" points="81.65 80.48 83.83 86.75 81.65 80.48 81.65 80.48"/>
        <path class="cls-3" d="m86.33,93.5c-.06-.08-.11-.17-.17-.26.05.09.11.18.17.26Z"/>
        <path class="cls-3" d="m86.64,93.84c-.07-.06-.12-.13-.18-.2.06.07.12.14.18.2Z"/>
        <path class="cls-3" d="m86.06,93.09c-.07-.13-.13-.27-.18-.41.05.14.11.28.18.41Z"/>
        <polygon class="cls-3" points="81.48 79.97 78.81 72.25 78.81 72.25 81.48 79.97 81.65 80.48 81.65 80.48 81.48 79.97"/>
        <polygon class="cls-3" points="85.2 63.4 85.2 63.4 94.74 66.71 95.48 66.96 95.48 66.96 94.74 66.71 85.2 63.4"/>
        <path class="cls-3" d="m77.87,61.77c.18-.09.37-.17.57-.22-.2.05-.39.13-.57.22Z"/>
        <path class="cls-3" d="m76.82,62.65c.12-.16.25-.3.4-.43-.15.13-.28.27-.4.43Z"/>
        <path class="cls-3" d="m77.3,62.14c.15-.12.31-.23.48-.32-.17.09-.33.2-.48.32Z"/>
        <path class="cls-3" d="m76.3,63.83c.04-.2.09-.39.17-.57-.08.18-.13.37-.17.57Z"/>
        <path class="cls-3" d="m76.25,64.55c-.01-.21,0-.41.03-.61-.03.2-.04.4-.03.61Z"/>
        <path class="cls-3" d="m76.5,63.2c.08-.18.18-.34.29-.5-.11.16-.21.32-.29.5Z"/>
        <path class="cls-3" d="m78.45,61.56c.2-.05.4-.07.61-.08-.21,0-.42.03-.61.08Z"/>
        <path class="cls-3" d="m79.18,61.48c.1,0,.2.01.3.03-.1-.01-.2-.02-.3-.03Z"/>
        <path class="cls-3" d="m76.41,65.32c-.08-.22-.12-.45-.14-.66.02.22.06.44.14.66l2.4,6.93h0l-2.4-6.93Z"/>
        <polygon class="cls-3" points="85.2 63.4 85.2 63.4 80.09 61.64 85.2 63.4"/>
        <path class="cls-3" d="m79.63,61.52c.15.03.31.06.46.12-.15-.05-.31-.09-.46-.12Z"/>
      </g>
      <circle class="cls-3" cx="21.7" cy="18.88" r="8.68"/>
    </g>
  </g>
</svg>