<svg xmlns="http://www.w3.org/2000/svg" width="14" height="14" viewBox="0 0 14 14">
  <g id="그룹_1129" data-name="그룹 1129" transform="translate(21966 -4450)">
    <rect id="사각형_2234" data-name="사각형 2234" width="14" height="14" transform="translate(-21966 4450)" fill="#fff" opacity="0"/>
    <path id="패스_457" data-name="패스 457" d="M3.766,14A3.763,3.763,0,0,1,1.105,7.576L7.872.809a2.765,2.765,0,1,1,3.909,3.91L4.888,11.612a1.765,1.765,0,0,1-2.5-2.5L8.529,2.976a.525.525,0,0,1,.742.742L3.134,9.857a.716.716,0,0,0,.506,1.222.705.705,0,0,0,.506-.21l6.893-6.893A1.714,1.714,0,0,0,8.615,1.551L1.847,8.318a2.713,2.713,0,1,0,3.837,3.837l6.6-6.6a.525.525,0,1,1,.742.742l-6.6,6.6A3.739,3.739,0,0,1,3.766,14Z" transform="translate(-21965.592 4450)" fill="#9199b1"/>
  </g>
</svg>
