<?xml version="1.0" encoding="UTF-8"?>
<svg id="_레이어_2" data-name="레이어 2" xmlns="http://www.w3.org/2000/svg" xmlns:xlink="http://www.w3.org/1999/xlink" viewBox="0 0 268.82 202.61">
  <defs>
    <style>
      .cls-1 {
        fill: url(#_무제_그라디언트_63);
      }

      .cls-1, .cls-2, .cls-3, .cls-4, .cls-5, .cls-6, .cls-7, .cls-8, .cls-9, .cls-10 {
        stroke-width: 0px;
      }

      .cls-2 {
        fill: #95beef;
      }

      .cls-3 {
        fill: none;
      }

      .cls-4 {
        fill: #e7f1f7;
      }

      .cls-5 {
        fill: url(#_무제_그라디언트_30);
      }

      .cls-6 {
        fill: url(#_무제_그라디언트_76);
      }

      .cls-7 {
        fill: #fff;
      }

      .cls-8 {
        fill: url(#_무제_그라디언트_41);
      }

      .cls-9 {
        fill: #9ec4e8;
      }

      .cls-11 {
        clip-path: url(#clippath);
      }

      .cls-10 {
        fill: url(#_무제_그라디언트_75);
      }
    </style>
    <linearGradient id="_무제_그라디언트_76" data-name="무제 그라디언트 76" x1="127.15" y1="181.34" x2="127.15" y2="32.76" gradientTransform="translate(29.24 -27.27) rotate(13.82)" gradientUnits="userSpaceOnUse">
      <stop offset="0" stop-color="#5fa0e0"/>
      <stop offset="1" stop-color="#a2cbf4"/>
    </linearGradient>
    <linearGradient id="_무제_그라디언트_63" data-name="무제 그라디언트 63" x1="160.42" y1="116.43" x2="40.56" y2="88.98" gradientUnits="userSpaceOnUse">
      <stop offset="0" stop-color="#2f7db2"/>
      <stop offset=".56" stop-color="#2f7db2" stop-opacity="0"/>
    </linearGradient>
    <linearGradient id="_무제_그라디언트_30" data-name="무제 그라디언트 30" x1="153.07" y1="160.94" x2="153.07" y2="31.54" gradientUnits="userSpaceOnUse">
      <stop offset="0" stop-color="#aad3f7"/>
      <stop offset="1" stop-color="#d4e8ff"/>
    </linearGradient>
    <clipPath id="clippath">
      <path class="cls-3" d="m207.22,58.48v95.4c0,3.87-3.13,7-7,7h-94.31c-3.87,0-7-3.13-7-7V38.48c0-3.87,3.13-7,7-7h74.31l27,27Z"/>
    </clipPath>
    <linearGradient id="_무제_그라디언트_41" data-name="무제 그라디언트 41" x1="191.93" y1="128.29" x2="191.93" y2="193.12" gradientUnits="userSpaceOnUse">
      <stop offset="0" stop-color="#aad3f7"/>
      <stop offset=".53" stop-color="#7abaea"/>
    </linearGradient>
    <linearGradient id="_무제_그라디언트_75" data-name="무제 그라디언트 75" x1="192.55" y1="181.34" x2="192.55" y2="127.86" gradientUnits="userSpaceOnUse">
      <stop offset="0" stop-color="#1dce8e"/>
      <stop offset="1" stop-color="#5bddb5"/>
    </linearGradient>
  </defs>
  <g id="_레이어_1-2" data-name="레이어 1">
    <g>
      <path class="cls-9" d="m230.28,60.8c-.24,0-.49,0-.73,0-.28,0-.49-.24-.49-.51,0-.28.24-.5.51-.49.97.02,1.96,0,2.93-.07.28-.02.52.19.54.46.02.28-.19.52-.46.54-.76.06-1.54.09-2.3.09Zm-6.63-.74s-.07,0-.11-.01c-.98-.22-1.97-.5-2.92-.82-.26-.09-.4-.37-.32-.63.09-.26.37-.4.63-.32.92.31,1.87.57,2.82.79.27.06.44.33.38.6-.05.23-.26.39-.49.39Zm14.76-.38c-.22,0-.42-.14-.48-.36-.07-.27.08-.54.35-.62.94-.26,1.87-.58,2.78-.94.26-.1.55.03.65.28.1.26-.03.55-.28.65-.94.37-1.9.69-2.87.97-.05.01-.09.02-.14.02Zm-23.07-2.87c-.08,0-.17-.02-.25-.07-.87-.5-1.73-1.06-2.55-1.64-.22-.16-.28-.47-.11-.7.16-.22.47-.28.7-.11.79.57,1.62,1.1,2.47,1.59.24.14.32.44.18.68-.09.16-.26.25-.43.25Zm31.2-.81c-.16,0-.32-.08-.42-.23-.15-.23-.08-.54.15-.69.82-.53,1.62-1.11,2.38-1.72.22-.17.53-.14.7.08.17.22.14.53-.08.7-.79.63-1.62,1.23-2.46,1.77-.08.05-.18.08-.27.08Zm-38.18-4.74c-.13,0-.27-.05-.37-.16-.69-.74-1.34-1.52-1.95-2.32-.17-.22-.12-.53.09-.7.22-.17.53-.12.7.09.59.78,1.23,1.53,1.89,2.24.19.2.18.52-.03.71-.1.09-.22.13-.34.13Zm44.86-1.16c-.11,0-.23-.04-.32-.12-.21-.18-.24-.49-.06-.7.63-.75,1.22-1.53,1.77-2.34.16-.23.47-.29.69-.13.23.16.29.47.13.69-.57.83-1.18,1.64-1.83,2.42-.1.12-.24.18-.38.18Zm-49.9-6.19c-.19,0-.36-.1-.45-.28-.44-.91-.84-1.85-1.18-2.79-.09-.26.04-.55.3-.64.26-.09.55.04.64.3.34.92.72,1.82,1.15,2.7.12.25.02.55-.23.67-.07.03-.14.05-.22.05Zm54.56-1.42c-.06,0-.13-.01-.19-.04-.25-.11-.37-.4-.27-.65.38-.9.72-1.83,1-2.76.08-.26.36-.41.62-.33.26.08.41.36.33.62-.3.96-.65,1.92-1.04,2.85-.08.19-.27.31-.46.31Zm-57.2-7.1c-.24,0-.46-.18-.49-.43-.15-.99-.25-2.01-.3-3.02-.01-.28.2-.51.47-.52.27-.01.51.2.52.47.05.98.15,1.96.29,2.92.04.27-.15.53-.42.57-.03,0-.05,0-.08,0Zm59.39-1.54s-.03,0-.05,0c-.27-.03-.48-.27-.45-.55.1-.97.14-1.95.14-2.93v-.12c0-.28.21-.5.5-.5.28,0,.5.22.5.5v.13c0,1.01-.05,2.03-.15,3.03-.03.26-.24.45-.5.45Zm-59.41-7.38s-.05,0-.07,0c-.27-.04-.46-.29-.42-.57.15-1,.35-2,.59-2.97.07-.27.34-.43.61-.36.27.07.43.34.36.61-.24.94-.43,1.91-.57,2.88-.04.25-.25.43-.49.43Zm58.94-1.65c-.23,0-.44-.16-.49-.4-.2-.95-.44-1.91-.73-2.84-.08-.26.06-.54.33-.63.26-.08.54.06.63.33.3.96.56,1.95.76,2.94.06.27-.12.53-.39.59-.03,0-.07.01-.1.01Zm-56.34-6.88c-.07,0-.15-.02-.22-.05-.25-.12-.35-.42-.23-.67.44-.91.92-1.8,1.45-2.67.14-.24.45-.31.69-.17.24.14.31.45.17.69-.51.83-.98,1.7-1.4,2.58-.09.18-.26.28-.45.28Zm53.26-1.49c-.18,0-.35-.09-.44-.26-.47-.85-.99-1.69-1.54-2.5-.16-.23-.1-.54.13-.7.23-.16.54-.1.7.13.57.83,1.11,1.7,1.59,2.58.13.24.05.55-.2.68-.08.04-.16.06-.24.06Zm-48.24-5.89c-.12,0-.24-.04-.34-.13-.2-.19-.22-.5-.03-.71.68-.74,1.41-1.45,2.17-2.12.21-.18.52-.16.71.04.18.21.16.52-.04.71-.73.65-1.43,1.34-2.09,2.05-.1.11-.23.16-.37.16Zm42.83-1.2c-.13,0-.25-.05-.35-.14-.7-.68-1.44-1.33-2.21-1.93-.22-.17-.25-.49-.08-.7.17-.22.49-.25.7-.08.79.63,1.56,1.3,2.28,2,.2.19.2.51.01.71-.1.1-.23.15-.36.15Zm-35.87-4.38c-.17,0-.34-.09-.43-.25-.14-.24-.06-.54.18-.68.87-.51,1.78-.98,2.69-1.39.25-.11.55,0,.66.25.11.25,0,.55-.25.66-.89.4-1.76.86-2.61,1.35-.08.05-.17.07-.25.07Zm28.61-.8c-.08,0-.15-.02-.23-.05-.87-.44-1.77-.85-2.68-1.2-.26-.1-.38-.39-.28-.65.1-.26.39-.38.65-.28.94.36,1.87.78,2.77,1.24.25.13.34.43.22.67-.09.17-.26.27-.45.27Zm-20.32-2.48c-.23,0-.43-.16-.49-.39-.06-.27.11-.54.37-.6.98-.23,1.99-.41,2.99-.53.27-.04.52.16.56.43.03.27-.16.52-.43.56-.97.12-1.94.3-2.89.51-.04,0-.08.01-.11.01Zm11.85-.33s-.06,0-.09,0c-.96-.16-1.94-.28-2.91-.35-.28-.02-.48-.26-.46-.53.02-.28.26-.48.53-.46,1.01.07,2.02.19,3.01.36.27.05.45.31.41.58-.04.24-.25.42-.49.42Z"/>
      <path class="cls-4" d="m268.82,103.59h0c0-9.04-7.33-16.38-16.38-16.38h-32.17c-9.04,0-16.38-7.33-16.38-16.38h0c0-9.04,7.33-16.38,16.38-16.38h8.85c9.04,0,16.38-7.33,16.38-16.38h0c0-9.04-7.33-16.38-16.38-16.38H71.62c-9.04,0-16.38,7.33-16.38,16.38v2.29c0,7.78,6.31,14.09,14.09,14.09h0c9.04,0,16.38,7.33,16.38,16.38h0c0,9.04-7.33,16.38-16.38,16.38H27.98c-9.04,0-16.38,7.33-16.38,16.38h0c0,9.04,7.33,16.38,16.38,16.38h11.45c9.04,0,16.38,7.33,16.38,16.38h0c0,9.04-7.33,16.38-16.38,16.38h-.48c-9.04,0-16.38,7.33-16.38,16.38h0c0,9.04,7.33,16.38,16.38,16.38h179.91c9.04,0,16.38-7.33,16.38-16.38h0c0-9.04-7.33-16.38-16.38-16.38h-38.48c-9.04,0-16.38-7.33-16.38-16.38h0c0-9.04,7.33-16.38,16.38-16.38h72.07c9.04,0,16.38-7.33,16.38-16.38Z"/>
      <path class="cls-9" d="m50.79,202.61c-.27,0-.49-.21-.5-.48,0-.28.21-.51.48-.52.99-.03,1.98-.09,2.96-.18.27-.02.52.18.54.45.03.27-.18.52-.45.54-1,.09-2.02.16-3.02.19,0,0-.01,0-.02,0Zm-5.99-.18s-.03,0-.05,0c-1-.09-2.02-.21-3.01-.37-.27-.04-.46-.3-.42-.57s.3-.46.57-.42c.97.15,1.96.27,2.95.36.28.02.48.27.45.54-.02.26-.24.45-.5.45Zm14.91-.93c-.23,0-.44-.16-.49-.39-.06-.27.11-.54.38-.6.96-.21,1.93-.45,2.88-.72.27-.08.54.08.62.34s-.08.54-.34.62c-.97.28-1.96.52-2.94.74-.04,0-.07.01-.11.01Zm-23.75-.71s-.09,0-.14-.02c-.97-.27-1.94-.58-2.89-.91-.26-.09-.4-.38-.31-.64.09-.26.38-.4.64-.31.93.33,1.88.63,2.83.9.27.08.42.35.35.62-.06.22-.26.36-.48.36Zm32.32-2.02c-.19,0-.38-.11-.46-.3-.11-.25.01-.55.26-.66.91-.38,1.81-.8,2.69-1.24.25-.12.55-.02.67.22.12.25.02.55-.22.67-.9.45-1.82.88-2.75,1.27-.06.03-.13.04-.2.04Zm-40.71-1.21c-.07,0-.15-.02-.22-.05-.9-.45-1.8-.93-2.67-1.43-.24-.14-.32-.44-.18-.68s.44-.32.68-.18c.86.49,1.74.97,2.62,1.41.25.12.35.42.23.67-.09.18-.26.28-.45.28Zm48.62-3.05c-.16,0-.32-.08-.42-.22-.15-.23-.09-.54.14-.69.82-.55,1.63-1.12,2.42-1.72.22-.17.53-.12.7.1.17.22.12.53-.1.7-.8.61-1.63,1.2-2.47,1.75-.09.06-.18.08-.28.08Zm-56.27-1.69c-.1,0-.21-.03-.3-.1-.8-.61-1.6-1.24-2.36-1.9-.21-.18-.23-.5-.06-.7s.5-.23.7-.06c.75.64,1.53,1.27,2.32,1.86.22.17.26.48.1.7-.1.13-.25.2-.4.2Zm63.26-3.96c-.13,0-.26-.05-.36-.15-.19-.2-.19-.51.01-.71.71-.69,1.4-1.4,2.07-2.13.19-.2.5-.22.71-.03s.22.5.03.71c-.68.74-1.39,1.48-2.11,2.18-.1.09-.22.14-.35.14Zm-69.91-2.09c-.14,0-.27-.05-.37-.16-.68-.74-1.34-1.52-1.98-2.3-.17-.21-.14-.53.07-.7.21-.17.53-.14.7.07.62.77,1.27,1.52,1.94,2.25.19.2.17.52-.03.71-.1.09-.22.13-.34.13Zm75.76-4.73c-.1,0-.2-.03-.29-.09-.23-.16-.28-.47-.12-.7.57-.81,1.12-1.64,1.64-2.48.15-.23.45-.31.69-.16.23.15.31.45.16.69-.53.86-1.09,1.71-1.68,2.53-.1.14-.25.21-.41.21Zm-81.2-2.43c-.17,0-.33-.08-.42-.24-.53-.85-1.04-1.73-1.52-2.62-.13-.24-.04-.55.2-.68s.55-.04.68.2c.47.87.97,1.73,1.49,2.57.15.23.07.54-.16.69-.08.05-.17.08-.26.08Zm85.7-5.36c-.07,0-.14-.01-.21-.05-.25-.12-.36-.41-.24-.66.41-.9.8-1.82,1.16-2.74.1-.26.39-.39.65-.29.26.1.39.39.29.65-.36.94-.76,1.88-1.18,2.8-.08.18-.27.29-.45.29Zm-89.72-2.67c-.2,0-.39-.12-.47-.32-.37-.94-.71-1.9-1.01-2.86-.08-.26.06-.54.32-.63.26-.08.54.06.63.32.3.94.63,1.88.99,2.8.1.26-.03.55-.28.65-.06.02-.12.03-.18.03Zm92.71-5.81s-.08,0-.12-.02c-.27-.07-.43-.34-.36-.61.24-.96.45-1.93.63-2.9.05-.27.31-.45.58-.4.27.05.45.31.4.58-.18.99-.4,1.99-.65,2.96-.06.23-.26.38-.48.38Zm-95.18-2.83c-.24,0-.45-.17-.49-.41-.19-.99-.34-2-.47-2.99-.03-.27.16-.52.43-.56.27-.03.52.16.56.43.12.98.28,1.97.46,2.93.05.27-.13.53-.4.58-.03,0-.06,0-.09,0Zm96.55-6.05s-.02,0-.03,0c-.28-.02-.49-.25-.47-.53.06-.98.09-1.98.09-2.97v-.2c0-.28.22-.5.5-.5.28,0,.5.22.5.5v.21c0,1.01-.03,2.03-.09,3.03-.02.27-.24.47-.5.47ZM.5,154c-.28,0-.5-.22-.5-.5v-.11c0-.97.03-1.96.09-2.92.02-.28.25-.48.53-.47.28.02.49.25.47.53-.06.95-.08,1.91-.08,2.87v.1c0,.28-.25.48-.5.5Zm97.09-6.29c-.25,0-.46-.18-.5-.44-.12-.98-.28-1.97-.46-2.93-.05-.27.13-.53.4-.58.27-.05.53.13.58.4.19.99.35,1.99.47,2.99.03.27-.16.52-.43.56-.02,0-.04,0-.06,0Zm-96.29-2.66s-.06,0-.09,0c-.27-.05-.45-.31-.4-.58.18-.99.4-1.99.64-2.96.07-.27.34-.43.61-.36.27.07.43.34.36.61-.24.96-.45,1.93-.63,2.9-.04.24-.25.41-.49.41Zm94.34-6.12c-.21,0-.41-.13-.48-.35-.3-.94-.64-1.88-1-2.8-.1-.26.03-.55.28-.65.26-.1.55.03.65.28.37.94.71,1.9,1.02,2.85.08.26-.06.54-.32.63-.05.02-.1.02-.15.02Zm-91.9-2.54c-.06,0-.12-.01-.18-.03-.26-.1-.39-.39-.29-.65.36-.94.76-1.88,1.18-2.8.11-.25.41-.36.66-.25.25.11.36.41.25.66-.41.9-.8,1.82-1.15,2.74-.08.2-.27.32-.47.32Zm88.36-5.72c-.18,0-.35-.09-.44-.26-.47-.86-.97-1.73-1.5-2.56-.15-.23-.08-.54.16-.69.23-.15.54-.08.69.16.53.85,1.05,1.73,1.53,2.62.13.24.04.55-.2.68-.08.04-.16.06-.24.06Zm-84.37-2.34c-.09,0-.18-.02-.26-.07-.23-.15-.31-.45-.16-.69.53-.86,1.09-1.71,1.67-2.53.16-.23.47-.28.7-.12.23.16.28.47.12.7-.57.81-1.12,1.64-1.64,2.48-.09.15-.26.24-.43.24Zm79.37-5.13c-.15,0-.29-.06-.39-.18-.62-.76-1.27-1.52-1.94-2.25-.19-.2-.17-.52.03-.71.2-.19.52-.17.71.03.68.74,1.35,1.51,1.98,2.29.17.21.14.53-.07.7-.09.08-.2.11-.31.11Zm-73.96-2.06c-.12,0-.24-.04-.34-.13-.2-.19-.22-.5-.03-.71.68-.74,1.38-1.48,2.11-2.18.2-.19.51-.19.71,0,.19.2.19.51,0,.71-.71.69-1.4,1.41-2.06,2.14-.1.11-.23.16-.37.16Zm67.68-4.37c-.11,0-.23-.04-.32-.12-.75-.64-1.53-1.26-2.32-1.86-.22-.17-.27-.48-.1-.7.17-.22.48-.27.7-.1.81.6,1.6,1.24,2.37,1.89.21.18.24.49.06.7-.1.12-.24.18-.38.18Zm-61.05-1.7c-.15,0-.3-.07-.4-.2-.17-.22-.12-.53.1-.7.8-.61,1.63-1.2,2.47-1.76.23-.15.54-.09.69.14.15.23.09.54-.14.69-.82.55-1.63,1.13-2.42,1.72-.09.07-.2.1-.3.1Zm53.7-3.48c-.08,0-.17-.02-.25-.07-.86-.49-1.74-.96-2.62-1.4-.25-.12-.35-.42-.23-.67.12-.25.42-.35.67-.23.9.45,1.8.93,2.68,1.43.24.14.32.44.18.68-.09.16-.26.25-.43.25Zm-46.08-1.28c-.18,0-.36-.1-.45-.28-.12-.25-.02-.55.22-.67.9-.45,1.82-.88,2.75-1.27.25-.11.55,0,.66.26.11.25,0,.55-.26.66-.91.39-1.81.81-2.69,1.25-.07.04-.15.05-.22.05Zm37.89-2.46c-.05,0-.11,0-.16-.03-.93-.32-1.88-.62-2.83-.89-.27-.07-.42-.35-.35-.62.07-.27.35-.42.62-.35.97.27,1.94.58,2.89.91.26.09.4.38.31.64-.07.21-.27.34-.47.34Zm-29.53-.82c-.22,0-.42-.14-.48-.36-.08-.27.08-.54.34-.62.97-.28,1.96-.53,2.94-.75.27-.06.54.11.6.38.06.27-.11.54-.38.6-.96.21-1.93.46-2.88.73-.05.01-.09.02-.14.02Zm20.8-1.34s-.05,0-.08,0c-.97-.15-1.97-.26-2.95-.35-.28-.02-.48-.27-.45-.54s.27-.48.54-.45c1,.09,2.02.21,3.01.36.27.04.46.3.42.57-.04.25-.25.43-.49.43Zm-11.97-.33c-.25,0-.47-.19-.5-.45-.03-.27.18-.52.45-.54,1-.09,2.02-.16,3.02-.19.28,0,.51.21.52.48,0,.28-.21.51-.48.52-.99.03-1.98.1-2.96.19-.02,0-.03,0-.05,0Z"/>
      <rect class="cls-6" x="73" y="42.35" width="108.31" height="129.4" rx="7" ry="7" transform="translate(-21.88 33.46) rotate(-13.82)"/>
      <path class="cls-1" d="m74.25,53.43l52.9-13.01,45.72,122.01-70.85,8.61c-3.43.42-6.6-1.91-7.22-5.31l-20.55-112.3Z"/>
      <path class="cls-5" d="m207.22,58.54v95.4c0,3.87-3.13,7-7,7h-94.31c-3.87,0-7-3.13-7-7V38.54c0-3.87,3.13-7,7-7h74.31l27,27Z"/>
      <path class="cls-2" d="m180.22,31.54l27,27h-20c-3.87,0-7-3.13-7-7v-20Z"/>
      <path class="cls-7" d="m139.76,58.3h-25.21c-1.38,0-2.5-1.12-2.5-2.5s1.12-2.5,2.5-2.5h25.21c1.38,0,2.5,1.12,2.5,2.5s-1.12,2.5-2.5,2.5Z"/>
      <path class="cls-7" d="m169.89,73.13h-55.34c-1.38,0-2.5-1.12-2.5-2.5s1.12-2.5,2.5-2.5h55.34c1.38,0,2.5,1.12,2.5,2.5s-1.12,2.5-2.5,2.5Z"/>
      <path class="cls-7" d="m169.89,87.96h-55.34c-1.38,0-2.5-1.12-2.5-2.5s1.12-2.5,2.5-2.5h55.34c1.38,0,2.5,1.12,2.5,2.5s-1.12,2.5-2.5,2.5Z"/>
      <g class="cls-11">
        <circle class="cls-8" cx="191.93" cy="160.7" r="32.41"/>
      </g>
      <circle class="cls-10" cx="192.55" cy="154.6" r="26.74"/>
      <path class="cls-7" d="m201.47,158.28c1.38,0,2.2-1.55,1.41-2.69l-4.24-6.16-4.68-6.79c-.68-.99-2.15-.99-2.83,0l-4.68,6.79-4.24,6.16c-.78,1.14.03,2.69,1.41,2.69h4.09v7.31c0,.95.77,1.72,1.72,1.72h6.23c.95,0,1.72-.77,1.72-1.72v-7.31h4.09Z"/>
      <g>
        <path class="cls-9" d="m25.69,37.85c-.28,0-.5-.22-.5-.5v-4.9c0-.28.22-.5.5-.5s.5.22.5.5v4.9c0,.28-.22.5-.5.5Z"/>
        <path class="cls-9" d="m25.69,47.88c-.28,0-.5-.22-.5-.5v-4.9c0-.28.22-.5.5-.5s.5.22.5.5v4.9c0,.28-.22.5-.5.5Z"/>
        <path class="cls-9" d="m31.16,40.42h-2.9c-.28,0-.5-.22-.5-.5s.22-.5.5-.5h2.9c.28,0,.5.22.5.5s-.22.5-.5.5Z"/>
        <path class="cls-9" d="m23.13,40.42h-2.9c-.28,0-.5-.22-.5-.5s.22-.5.5-.5h2.9c.28,0,.5.22.5.5s-.22.5-.5.5Z"/>
      </g>
      <g>
        <path class="cls-9" d="m246.43,145.07c-.28,0-.5-.22-.5-.5v-4.9c0-.28.22-.5.5-.5s.5.22.5.5v4.9c0,.28-.22.5-.5.5Z"/>
        <path class="cls-9" d="m246.43,155.1c-.28,0-.5-.22-.5-.5v-4.9c0-.28.22-.5.5-.5s.5.22.5.5v4.9c0,.28-.22.5-.5.5Z"/>
        <path class="cls-9" d="m251.9,147.64h-2.9c-.28,0-.5-.22-.5-.5s.22-.5.5-.5h2.9c.28,0,.5.22.5.5s-.22.5-.5.5Z"/>
        <path class="cls-9" d="m243.87,147.64h-2.9c-.28,0-.5-.22-.5-.5s.22-.5.5-.5h2.9c.28,0,.5.22.5.5s-.22.5-.5.5Z"/>
      </g>
    </g>
  </g>
</svg>