<svg xmlns="http://www.w3.org/2000/svg" xmlns:xlink="http://www.w3.org/1999/xlink" width="14" height="14" viewBox="0 0 14 14">
  <defs>
    <clipPath id="clip-path">
      <rect id="사각형_1842" data-name="사각형 1842" width="14" height="12.35" transform="translate(0 0)" fill="#2e66e9"/>
    </clipPath>
  </defs>
  <g id="그룹_930" data-name="그룹 930" transform="translate(19904 -7849)">
    <g id="사각형_1841" data-name="사각형 1841" transform="translate(-19904 7849)" fill="#fff" stroke="#707070" stroke-width="1" opacity="0">
      <rect width="14" height="14" stroke="none"/>
      <rect x="0.5" y="0.5" width="13" height="13" fill="none"/>
    </g>
    <g id="그룹_929" data-name="그룹 929" transform="translate(-19904 7849.826)">
      <g id="그룹_928" data-name="그룹 928" transform="translate(0 0)" clip-path="url(#clip-path)">
        <path id="패스_292" data-name="패스 292" d="M53.023,57.319H48.575a.684.684,0,1,0,0,1.367h4.449a.684.684,0,1,0,0-1.367" transform="translate(-39.707 -47.524)" fill="#2e66e9"/>
        <path id="패스_293" data-name="패스 293" d="M5.287,50.4a1.87,1.87,0,0,0-1.736,1.182H.684a.684.684,0,0,0,0,1.367H3.549A1.867,1.867,0,1,0,5.287,50.4m0,2.369a.5.5,0,1,1,.5-.5.5.5,0,0,1-.5.5" transform="translate(0 -41.79)" fill="#2e66e9"/>
        <path id="패스_294" data-name="패스 294" d="M.684,33.516H5.132a.684.684,0,1,0,0-1.367H.684a.684.684,0,1,0,0,1.367" transform="translate(0 -26.655)" fill="#2e66e9"/>
        <path id="패스_295" data-name="패스 295" d="M46.528,26.388H43.663a1.868,1.868,0,1,0,0,1.367h2.867a.684.684,0,0,0,0-1.367m-4.6,1.182a.5.5,0,1,1,.5-.5.5.5,0,0,1-.5.5" transform="translate(-33.212 -20.894)" fill="#2e66e9"/>
        <path id="패스_296" data-name="패스 296" d="M48.575,8.283h4.449a.684.684,0,0,0,0-1.367H48.575a.684.684,0,0,0,0,1.367" transform="translate(-39.707 -5.734)" fill="#2e66e9"/>
        <path id="패스_297" data-name="패스 297" d="M.684,2.549H3.549a1.868,1.868,0,1,0,0-1.367H.684a.684.684,0,1,0,0,1.367m4.6-1.182a.5.5,0,1,1-.5.5.5.5,0,0,1,.5-.5" transform="translate(0 0)" fill="#2e66e9"/>
      </g>
    </g>
  </g>
</svg>
