<svg xmlns="http://www.w3.org/2000/svg" xmlns:xlink="http://www.w3.org/1999/xlink" width="140" height="36" viewBox="0 0 140 36">
  <defs>
    <clipPath id="clip-path">
      <path id="패스_203" data-name="패스 203" d="M15.465,27.041c-6.39,0-13.641-2.332-15.465-8,0,1.489.067,4.159.183,5.668.67,8.744,8.724,12,15.278,12.006h.008c6.554,0,15.462-3.778,15.462-12.006,0-1.513,0-5.292,0-6.781C29.1,23.6,21.853,27.041,15.465,27.041" transform="translate(0 -17.925)" fill="none"/>
    </clipPath>
    <linearGradient id="linear-gradient" y1="1" x2="0.031" y2="1" gradientUnits="objectBoundingBox">
      <stop offset="0" stop-color="#00aef0"/>
      <stop offset="1" stop-color="#004a9c"/>
    </linearGradient>
    <clipPath id="clip-path-2">
      <rect id="사각형_1569" data-name="사각형 1569" width="139.314" height="35.797" fill="none"/>
    </clipPath>
  </defs>
  <g id="그룹_850" data-name="그룹 850" transform="translate(-884.773 -227)">
    <rect id="사각형_1570" data-name="사각형 1570" width="140" height="36" transform="translate(884.773 227)" fill="#fff" opacity="0"/>
    <g id="그룹_848" data-name="그룹 848" transform="translate(885.037 227)">
      <g id="그룹_845" data-name="그룹 845" transform="translate(0 17.01)">
        <g id="그룹_844" data-name="그룹 844" clip-path="url(#clip-path)">
          <rect id="사각형_1567" data-name="사각형 1567" width="30.931" height="18.787" transform="translate(0 0)" fill="url(#linear-gradient)"/>
        </g>
      </g>
      <g id="그룹_847" data-name="그룹 847" transform="translate(0 0)">
        <g id="그룹_846" data-name="그룹 846" clip-path="url(#clip-path-2)">
          <path id="패스_204" data-name="패스 204" d="M22.325,1.135A20.009,20.009,0,0,0,15.9,0h-.039c-8.767.017-15,5.932-15,13.922A14.1,14.1,0,0,0,1.036,16.2c2.54-5.319,8.556-7.45,14.842-7.456a22.212,22.212,0,0,1,6.435.92Z" transform="translate(-0.044 0)" fill="#95c038"/>
          <path id="패스_205" data-name="패스 205" d="M18.8,17.094a20.52,20.52,0,0,0-.774,4.726,12.381,12.381,0,0,1,7.7-1.626c4.676.357,9.429,4.07,9.429,4.07V16.935a14.891,14.891,0,0,0-9.55-3.723c-3.468-.087-5.934,1.631-6.807,3.882" transform="translate(-0.92 -0.674)" fill="#fc9220"/>
          <path id="패스_206" data-name="패스 206" d="M45.51,26.429a6.153,6.153,0,0,1,.058-.984A1.878,1.878,0,0,1,46,24.454a1.729,1.729,0,0,1,2.249-.081,1.339,1.339,0,0,1,.383,1H48.08a.979.979,0,0,0-.206-.641.839.839,0,0,0-.684-.289.938.938,0,0,0-.928.656,3.4,3.4,0,0,0-.176,1.229,3.882,3.882,0,0,0,.145,1.216.9.9,0,0,0,.9.7.849.849,0,0,0,.851-.512,2.428,2.428,0,0,0,.151-.966h-1.1v-.525h1.682V28.67h-.428v-.7a1.119,1.119,0,0,1-.457.571,1.439,1.439,0,0,1-.746.185,1.332,1.332,0,0,1-1.28-.753,3.392,3.392,0,0,1-.29-1.54" transform="translate(-2.324 -1.225)" fill="#5a5b5e"/>
          <path id="패스_207" data-name="패스 207" d="M49.458,29.075a.832.832,0,0,0,.426.113.722.722,0,0,0,.425-.1.532.532,0,0,0,.194-.466L49.3,25.353h.577l.9,2.668.839-2.668h.576l-1,2.833a2.494,2.494,0,0,1-.676,1.277.859.859,0,0,1-.583.158,1.723,1.723,0,0,1-.462-.067Z" transform="translate(-2.517 -1.294)" fill="#5a5b5e"/>
          <path id="패스_208" data-name="패스 208" d="M52.595,27.019a2.685,2.685,0,0,1,.188-1.079,1.034,1.034,0,0,1,1.015-.684.988.988,0,0,1,.977.566,2.448,2.448,0,0,1,.175,1.022v.268H53.171v.21a2.262,2.262,0,0,0,.087.74.536.536,0,0,0,.54.388.512.512,0,0,0,.486-.228.889.889,0,0,0,.09-.451v-.138H54.9v.1a1.06,1.06,0,0,1-.437.947,1.166,1.166,0,0,1-.665.195,1.012,1.012,0,0,1-.905-.444,2.57,2.57,0,0,1-.3-1.414m1.779-.336a1.518,1.518,0,0,0-.146-.794.5.5,0,0,0-.43-.2.533.533,0,0,0-.528.353,1.74,1.74,0,0,0-.1.645Z" transform="translate(-2.686 -1.289)" fill="#5a5b5e"/>
          <path id="패스_209" data-name="패스 209" d="M55.613,27.068a2.5,2.5,0,0,1,.243-1.208,1.181,1.181,0,0,1,1.12-.6,1.126,1.126,0,0,1,1,.485,2.263,2.263,0,0,1,.3,1.277A2.57,2.57,0,0,1,58,28.34a1.113,1.113,0,0,1-1.027.536,1.178,1.178,0,0,1-1.114-.565,2.531,2.531,0,0,1-.249-1.243m.576-.05a2.666,2.666,0,0,0,.115.913.664.664,0,0,0,.672.467.626.626,0,0,0,.62-.484,2.668,2.668,0,0,0,.106-.844,2.766,2.766,0,0,0-.111-.9.67.67,0,0,0-.67-.484.624.624,0,0,0-.638.467,2.957,2.957,0,0,0-.094.866" transform="translate(-2.84 -1.289)" fill="#5a5b5e"/>
          <path id="패스_210" data-name="패스 210" d="M59.178,28.734V25.357l.576-.008v.336a.971.971,0,0,1,.3-.269,1.012,1.012,0,0,1,.542-.159,1.136,1.136,0,0,1,.745.211.853.853,0,0,1,.251.693v2.574h-.58V26.45a1.157,1.157,0,0,0-.1-.543.449.449,0,0,0-.421-.219.754.754,0,0,0-.533.184.666.666,0,0,0-.2.525v2.337Z" transform="translate(-3.022 -1.289)" fill="#5a5b5e"/>
          <path id="패스_211" data-name="패스 211" d="M62.412,26.938a2.666,2.666,0,0,1,.163-1.017.993.993,0,0,1,.988-.665,1.03,1.03,0,0,1,.595.164.555.555,0,0,1,.244.317v-.381l.579-.008v2.468a4.408,4.408,0,0,1-.058.818,1.124,1.124,0,0,1-1.257,1,1.268,1.268,0,0,1-.8-.242.863.863,0,0,1-.346-.613h.525a.653.653,0,0,0,.19.319.678.678,0,0,0,.431.11.634.634,0,0,0,.629-.372,1.338,1.338,0,0,0,.107-.584v-.041a.825.825,0,0,1-.346.291,1.285,1.285,0,0,1-.493.082.98.98,0,0,1-.962-.607,2.5,2.5,0,0,1-.189-1.042m.53,0a1.846,1.846,0,0,0,.186.968.594.594,0,0,0,.538.255.628.628,0,0,0,.642-.455A2.588,2.588,0,0,0,64.4,26.9a2.149,2.149,0,0,0-.107-.831.625.625,0,0,0-.629-.33.6.6,0,0,0-.573.273,2.043,2.043,0,0,0-.151.93" transform="translate(-3.187 -1.289)" fill="#5a5b5e"/>
          <path id="패스_212" data-name="패스 212" d="M65.7,26.111a.867.867,0,0,1,.318-.621,1.348,1.348,0,0,1,.837-.234,1.151,1.151,0,0,1,.769.268.975.975,0,0,1,.339.78h-.528a.913.913,0,0,0-.149-.471.535.535,0,0,0-.431-.148.652.652,0,0,0-.439.121.449.449,0,0,0-.139.353.523.523,0,0,0,.346.493c.07.031.275.105.611.221a1.787,1.787,0,0,1,.693.382.827.827,0,0,1,.187.575.947.947,0,0,1-.32.782,1.353,1.353,0,0,1-.883.263,1.084,1.084,0,0,1-.965-.411,1.252,1.252,0,0,1-.189-.728h.52a1.05,1.05,0,0,0,.088.5.527.527,0,0,0,.491.216.811.811,0,0,0,.538-.172.516.516,0,0,0,.2-.4c0-.221-.154-.393-.464-.514-.065-.027-.252-.09-.554-.19a1.749,1.749,0,0,1-.612-.3.994.994,0,0,1-.262-.758" transform="translate(-3.355 -1.289)" fill="#5a5b5e"/>
          <path id="패스_213" data-name="패스 213" d="M68.669,27.924a1.154,1.154,0,0,1,.15-.638.814.814,0,0,1,.425-.314l.842-.291a.563.563,0,0,0,.255-.12A.231.231,0,0,0,70.4,26.4v-.335a.334.334,0,0,0-.1-.259.619.619,0,0,0-.422-.118.59.59,0,0,0-.457.138.748.748,0,0,0-.12.481h-.468l-.019-.176a.778.778,0,0,1,.313-.66,1.247,1.247,0,0,1,.753-.213,1.082,1.082,0,0,1,.959.358,1.319,1.319,0,0,1,.139.692v1.762a.289.289,0,0,0,.067.23.409.409,0,0,0,.251.056v.38l-.276.017a.694.694,0,0,1-.4-.1.45.45,0,0,1-.158-.346,1.022,1.022,0,0,1-.368.4.924.924,0,0,1-.472.123.935.935,0,0,1-.765-.273.948.948,0,0,1-.182-.631m1.73-.952c-.35.12-.6.214-.752.285a.655.655,0,0,0-.4.616.5.5,0,0,0,.141.382.466.466,0,0,0,.335.13.682.682,0,0,0,.437-.166.674.674,0,0,0,.241-.437Z" transform="translate(-3.506 -1.289)" fill="#5a5b5e"/>
          <path id="패스_214" data-name="패스 214" d="M71.909,28.734V25.357l.577-.008v.336a.929.929,0,0,1,.3-.269.99.99,0,0,1,.538-.159,1.134,1.134,0,0,1,.747.211.852.852,0,0,1,.25.693v2.574h-.578V26.45a1.174,1.174,0,0,0-.1-.543.454.454,0,0,0-.42-.219.763.763,0,0,0-.538.184.668.668,0,0,0-.2.525v2.337Z" transform="translate(-3.672 -1.289)" fill="#5a5b5e"/>
          <path id="패스_215" data-name="패스 215" d="M75.141,26.938a2.721,2.721,0,0,1,.164-1.017.991.991,0,0,1,.988-.665,1.028,1.028,0,0,1,.595.164.532.532,0,0,1,.244.317v-.381l.578-.008v2.468a4.527,4.527,0,0,1-.056.818,1.124,1.124,0,0,1-1.256,1,1.257,1.257,0,0,1-.8-.242.857.857,0,0,1-.349-.613h.524a.682.682,0,0,0,.188.319.7.7,0,0,0,.434.11.64.64,0,0,0,.632-.372,1.385,1.385,0,0,0,.1-.584v-.041a.814.814,0,0,1-.346.291,1.278,1.278,0,0,1-.493.082.979.979,0,0,1-.961-.607,2.466,2.466,0,0,1-.191-1.042m.53,0a1.837,1.837,0,0,0,.186.968.6.6,0,0,0,.54.255.628.628,0,0,0,.641-.455,2.623,2.623,0,0,0,.093-.809,2.223,2.223,0,0,0-.1-.831.629.629,0,0,0-.63-.33.6.6,0,0,0-.574.273,2.041,2.041,0,0,0-.152.93" transform="translate(-3.837 -1.289)" fill="#5a5b5e"/>
          <path id="패스_216" data-name="패스 216" d="M78.709,28.672V24.054h.579v1.518a1.011,1.011,0,0,1,.367-.316,1.093,1.093,0,0,1,.471-.1.98.98,0,0,1,.866.41,2.11,2.11,0,0,1,.286,1.2q0,2-1.152,2a1.11,1.11,0,0,1-.509-.112,1.056,1.056,0,0,1-.387-.358v.381Zm.521-1.626a1.918,1.918,0,0,0,.193.993.676.676,0,0,0,.6.294c.275,0,.466-.166.574-.5a2.685,2.685,0,0,0,.1-.825v-.148a2.156,2.156,0,0,0-.158-.91.557.557,0,0,0-.517-.377.682.682,0,0,0-.695.506,3.387,3.387,0,0,0-.1.968" transform="translate(-4.019 -1.228)" fill="#5a5b5e"/>
          <path id="패스_217" data-name="패스 217" d="M82.162,25.354h.53v2.623a.53.53,0,0,0,.118.376.4.4,0,0,0,.3.125.856.856,0,0,0,.561-.237.707.707,0,0,0,.27-.548V25.354h.53v3.385h-.53v-.428a1.054,1.054,0,0,1-.442.42.978.978,0,0,1-.444.1.793.793,0,0,1-.9-.9Z" transform="translate(-4.195 -1.294)" fill="#5a5b5e"/>
          <path id="패스_218" data-name="패스 218" d="M85.509,28.675V24.1h.525v2.764l1.312-1.573h.632l-1.154,1.333,1.154,2.053h-.632l-.889-1.664-.423.474v1.192Z" transform="translate(-4.366 -1.23)" fill="#5a5b5e"/>
          <rect id="사각형_1568" data-name="사각형 1568" width="1.624" height="0.524" transform="translate(83.676 25.354)" fill="#5a5b5e"/>
          <path id="패스_219" data-name="패스 219" d="M90.29,27.049a3.986,3.986,0,0,1,.125-1.2.988.988,0,0,1,1.029-.7.944.944,0,0,1,.786.42V24.054h.579v4.618h-.528v-.428a1.065,1.065,0,0,1-.325.369,1,1,0,0,1-.565.153.939.939,0,0,1-.962-.62,3.248,3.248,0,0,1-.139-1.1m1.991-.092a2.6,2.6,0,0,0-.129-.866c-.127-.345-.328-.518-.607-.518s-.5.192-.613.576a3.086,3.086,0,0,0-.112.9,2.477,2.477,0,0,0,.1.8.7.7,0,0,0,.583.485h.075a.575.575,0,0,0,.523-.335,2.254,2.254,0,0,0,.183-1.049" transform="translate(-4.61 -1.228)" fill="#5a5b5e"/>
          <path id="패스_220" data-name="패스 220" d="M93.69,27.068a2.492,2.492,0,0,1,.245-1.208,1.183,1.183,0,0,1,1.122-.6,1.127,1.127,0,0,1,1,.485,2.287,2.287,0,0,1,.3,1.277,2.59,2.59,0,0,1-.277,1.322,1.113,1.113,0,0,1-1.027.536,1.186,1.186,0,0,1-1.117-.565,2.54,2.54,0,0,1-.25-1.243m.58-.05a2.729,2.729,0,0,0,.112.913.67.67,0,0,0,.675.467.623.623,0,0,0,.618-.484,3.428,3.428,0,0,0-.008-1.745A.663.663,0,0,0,95,25.685a.624.624,0,0,0-.637.467,2.892,2.892,0,0,0-.094.866" transform="translate(-4.784 -1.289)" fill="#5a5b5e"/>
          <path id="패스_221" data-name="패스 221" d="M98.473,26.335a3.362,3.362,0,0,1,.288-1.542,1.392,1.392,0,0,1,1.339-.739,1.615,1.615,0,0,1,1.121.369,1.768,1.768,0,0,1,.492.895,4.56,4.56,0,0,1,.109,1.07,7.32,7.32,0,0,1-.043.974,1.726,1.726,0,0,1-.42.96,1.585,1.585,0,0,1-1.216.438,1.563,1.563,0,0,1-1.114-.373,1.8,1.8,0,0,1-.466-.924,5.636,5.636,0,0,1-.091-1.128m.6-.022a6.792,6.792,0,0,0,.043.905,1.572,1.572,0,0,0,.288.768.9.9,0,0,0,.747.325.922.922,0,0,0,.964-.717,4.934,4.934,0,0,0,.108-1.28,3.13,3.13,0,0,0-.191-1.263.945.945,0,0,0-.938-.547.835.835,0,0,0-.724.36,2.624,2.624,0,0,0-.3,1.45" transform="translate(-5.028 -1.228)" fill="#5a5b5e"/>
          <path id="패스_222" data-name="패스 222" d="M102.839,28.671v-3h-.522v-.428h.522v-.526a.6.6,0,0,1,.3-.559,1.16,1.16,0,0,1,.59-.131l.269.018v.429l-.251-.007a.409.409,0,0,0-.245.06.378.378,0,0,0-.139.284v.432h.634v.428h-.577v3Z" transform="translate(-5.225 -1.227)" fill="#5a5b5e"/>
          <path id="패스_223" data-name="패스 223" d="M104.636,28.671v-3h-.523v-.428h.523v-.526a.6.6,0,0,1,.293-.559,1.167,1.167,0,0,1,.59-.131l.27.018v.429l-.251-.007a.405.405,0,0,0-.245.06.379.379,0,0,0-.14.284v.432h.635v.428h-.578v3Z" transform="translate(-5.316 -1.227)" fill="#5a5b5e"/>
          <path id="패스_224" data-name="패스 224" d="M106.344,24.1h.521v.621h-.521Zm0,1.191h.521v3.385h-.521Z" transform="translate(-5.43 -1.23)" fill="#5a5b5e"/>
          <path id="패스_225" data-name="패스 225" d="M107.539,27.108a2.363,2.363,0,0,1,.38-1.532,1.158,1.158,0,0,1,.92-.365,1.079,1.079,0,0,1,.779.326,1.065,1.065,0,0,1,.326.776V26.4h-.528a.872.872,0,0,0-.123-.485.511.511,0,0,0-.452-.226.619.619,0,0,0-.619.46,2.368,2.368,0,0,0-.108.808v.155a2.811,2.811,0,0,0,.088.829.627.627,0,0,0,.639.455.48.48,0,0,0,.441-.221,1.217,1.217,0,0,0,.134-.631h.528a1.569,1.569,0,0,1-.176.779.971.971,0,0,1-.927.5,1.149,1.149,0,0,1-1.042-.474,2.357,2.357,0,0,1-.261-1.237" transform="translate(-5.491 -1.287)" fill="#5a5b5e"/>
          <path id="패스_226" data-name="패스 226" d="M110.5,27.019a2.718,2.718,0,0,1,.188-1.079,1.035,1.035,0,0,1,1.015-.684.982.982,0,0,1,.976.566,2.418,2.418,0,0,1,.175,1.022v.268h-1.776v.21a2.288,2.288,0,0,0,.087.74.535.535,0,0,0,.539.388.517.517,0,0,0,.488-.228.912.912,0,0,0,.088-.451v-.138h.528v.1a1.065,1.065,0,0,1-.439.947,1.154,1.154,0,0,1-.664.195,1.015,1.015,0,0,1-.905-.444,2.577,2.577,0,0,1-.3-1.414m1.78-.336a1.477,1.477,0,0,0-.148-.794.5.5,0,0,0-.428-.2.528.528,0,0,0-.526.353,1.7,1.7,0,0,0-.1.645Z" transform="translate(-5.643 -1.289)" fill="#5a5b5e"/>
          <path id="패스_227" data-name="패스 227" d="M114.84,27.068a2.526,2.526,0,0,1,.244-1.208,1.183,1.183,0,0,1,1.121-.6,1.126,1.126,0,0,1,1,.485,2.28,2.28,0,0,1,.3,1.277,2.571,2.571,0,0,1-.276,1.322,1.115,1.115,0,0,1-1.028.536,1.18,1.18,0,0,1-1.114-.565,2.518,2.518,0,0,1-.251-1.243m.578-.05a2.67,2.67,0,0,0,.114.913.668.668,0,0,0,.673.467.626.626,0,0,0,.62-.484,2.61,2.61,0,0,0,.107-.844,2.762,2.762,0,0,0-.112-.9.672.672,0,0,0-.671-.484.623.623,0,0,0-.637.467,2.861,2.861,0,0,0-.094.866" transform="translate(-5.864 -1.289)" fill="#5a5b5e"/>
          <path id="패스_228" data-name="패스 228" d="M118.495,28.671v-3h-.523v-.428h.523v-.526a.6.6,0,0,1,.294-.559,1.161,1.161,0,0,1,.589-.131l.271.018v.429l-.252-.007a.4.4,0,0,0-.243.06.372.372,0,0,0-.139.284v.432h.634v.428h-.579v3Z" transform="translate(-6.024 -1.227)" fill="#5a5b5e"/>
          <path id="패스_229" data-name="패스 229" d="M121.524,28.678V24.156h2.568v.476H122.1v1.422h1.833v.476H122.1V28.2h1.933v.475Z" transform="translate(-6.205 -1.233)" fill="#5a5b5e"/>
          <path id="패스_230" data-name="패스 230" d="M124.759,27.049a4.066,4.066,0,0,1,.123-1.2.989.989,0,0,1,1.028-.7.949.949,0,0,1,.79.42V24.054h.576v4.618h-.528v-.428a1.05,1.05,0,0,1-.326.369.994.994,0,0,1-.562.153.94.94,0,0,1-.963-.62,3.233,3.233,0,0,1-.138-1.1m1.989-.092a2.6,2.6,0,0,0-.13-.866c-.126-.345-.329-.518-.606-.518s-.5.192-.613.576a3.148,3.148,0,0,0-.113.9,2.525,2.525,0,0,0,.1.8.7.7,0,0,0,.583.485h.075a.57.57,0,0,0,.522-.335,2.253,2.253,0,0,0,.184-1.049" transform="translate(-6.37 -1.228)" fill="#5a5b5e"/>
          <path id="패스_231" data-name="패스 231" d="M128.378,25.354h.527v2.623a.526.526,0,0,0,.121.376.4.4,0,0,0,.3.125.852.852,0,0,0,.559-.237.707.707,0,0,0,.272-.548V25.354h.53v3.385h-.53v-.428a1.042,1.042,0,0,1-.444.42.974.974,0,0,1-.443.1.791.791,0,0,1-.895-.9Z" transform="translate(-6.555 -1.294)" fill="#5a5b5e"/>
          <path id="패스_232" data-name="패스 232" d="M131.509,27.108a2.357,2.357,0,0,1,.38-1.532,1.153,1.153,0,0,1,.919-.365,1.121,1.121,0,0,1,1.109,1.1V26.4h-.53a.864.864,0,0,0-.123-.485.514.514,0,0,0-.453-.226.621.621,0,0,0-.62.46,2.424,2.424,0,0,0-.106.808v.155a2.819,2.819,0,0,0,.087.829.628.628,0,0,0,.639.455.474.474,0,0,0,.44-.221,1.216,1.216,0,0,0,.136-.631h.53a1.6,1.6,0,0,1-.177.779.974.974,0,0,1-.927.5,1.15,1.15,0,0,1-1.043-.474,2.357,2.357,0,0,1-.261-1.237" transform="translate(-6.715 -1.287)" fill="#5a5b5e"/>
          <path id="패스_233" data-name="패스 233" d="M134.415,27.924a1.146,1.146,0,0,1,.151-.638.821.821,0,0,1,.425-.314l.84-.291a.589.589,0,0,0,.258-.12.239.239,0,0,0,.056-.164v-.335a.331.331,0,0,0-.1-.259.615.615,0,0,0-.42-.118.6.6,0,0,0-.458.138.755.755,0,0,0-.118.481h-.471l-.017-.176a.775.775,0,0,1,.312-.66,1.242,1.242,0,0,1,.752-.213,1.083,1.083,0,0,1,.959.358,1.31,1.31,0,0,1,.139.692v1.762a.278.278,0,0,0,.071.23.39.39,0,0,0,.247.056v.38l-.275.017a.7.7,0,0,1-.4-.1.458.458,0,0,1-.157-.346,1.045,1.045,0,0,1-.369.4.881.881,0,0,1-1.42-.781m1.73-.952c-.35.12-.6.214-.752.285a.654.654,0,0,0-.4.616.51.51,0,0,0,.138.382.48.48,0,0,0,.339.13.672.672,0,0,0,.436-.166.682.682,0,0,0,.241-.437Z" transform="translate(-6.864 -1.289)" fill="#5a5b5e"/>
          <path id="패스_234" data-name="패스 234" d="M137.745,28.167V25.738h-.523v-.431h.523v-.852h.575v.852h.579v.431h-.579v2.333a.267.267,0,0,0,.031.154c.02.025.078.04.175.04h.32v.428h-.527a.806.806,0,0,1-.447-.081c-.087-.068-.127-.218-.127-.445" transform="translate(-7.007 -1.248)" fill="#5a5b5e"/>
          <path id="패스_235" data-name="패스 235" d="M139.45,24.1h.52v.621h-.52Zm0,1.191h.52v3.385h-.52Z" transform="translate(-7.121 -1.23)" fill="#5a5b5e"/>
          <path id="패스_236" data-name="패스 236" d="M140.7,27.068a2.492,2.492,0,0,1,.244-1.208,1.179,1.179,0,0,1,1.12-.6,1.123,1.123,0,0,1,1,.485,2.278,2.278,0,0,1,.3,1.277,2.621,2.621,0,0,1-.275,1.322,1.122,1.122,0,0,1-1.03.536,1.179,1.179,0,0,1-1.114-.565,2.5,2.5,0,0,1-.25-1.243m.575-.05a2.7,2.7,0,0,0,.114.913.672.672,0,0,0,.675.467.629.629,0,0,0,.621-.484,2.7,2.7,0,0,0,.105-.844,2.731,2.731,0,0,0-.113-.9.667.667,0,0,0-.669-.484.627.627,0,0,0-.638.467,2.855,2.855,0,0,0-.095.866" transform="translate(-7.184 -1.289)" fill="#5a5b5e"/>
          <path id="패스_237" data-name="패스 237" d="M144.265,28.734V25.357l.577-.008v.336a.958.958,0,0,1,.3-.269.994.994,0,0,1,.537-.159,1.122,1.122,0,0,1,.745.211.844.844,0,0,1,.252.693v2.574H146.1V26.45a1.169,1.169,0,0,0-.1-.543.451.451,0,0,0-.422-.219.754.754,0,0,0-.533.184.673.673,0,0,0-.2.525v2.337Z" transform="translate(-7.367 -1.289)" fill="#5a5b5e"/>
          <path id="패스_238" data-name="패스 238" d="M105.87,19.119V17.661h2.688V14.475h1.719v3.187h2.444V14.475h1.72v3.187h3.16v1.458Zm9.272-5.132V9.4h-8.4V7.949h9.973v6.038Z" transform="translate(-5.406 -0.406)" fill="#5a5b5e"/>
          <path id="패스_239" data-name="패스 239" d="M129.356,14.673V15.98h2.213v3.773h-1.624V17.433h-9.45V15.98h2.214V14.673h-2.67v-1.44h11.985v1.44Zm-6.27-4.644c0-3.859,5.875-3.831,5.875,0,0,3.872-5.875,3.9-5.875,0m4.55,4.644h-3.209v1.308h3.209Zm-3.012-4.644a1.392,1.392,0,0,0,2.784,0,1.392,1.392,0,0,0-2.784,0" transform="translate(-6.129 -0.365)" fill="#5a5b5e"/>
          <path id="패스_240" data-name="패스 240" d="M139.41,16.881c0-4.025,6.209-4.042,6.209,0,0,3.943-6.209,3.917-6.209,0m1.566,0a1.532,1.532,0,0,0,3.064,0,1.532,1.532,0,0,0-3.064,0m3.876-3.611V11.059H142.53V9.577h2.322V7.883h1.58V13.27Z" transform="translate(-7.119 -0.402)" fill="#5a5b5e"/>
          <path id="패스_241" data-name="패스 241" d="M137.988,11.269a4.86,4.86,0,0,0,3.5,2V11.8a3.1,3.1,0,0,1-2.62-2.14h2.516V8.191h-2.572V7.169H137.17V8.191h-2.632V9.66h2.576a3.069,3.069,0,0,1-2.624,2.14v1.466a4.87,4.87,0,0,0,3.5-2" transform="translate(-6.867 -0.366)" fill="#5a5b5e"/>
          <path id="패스_242" data-name="패스 242" d="M65.278,16.807c0-4.1,6.211-4.11,6.211,0,0,4.044-6.211,4.027-6.211,0m1.565,0a1.534,1.534,0,0,0,3.067,0,1.534,1.534,0,0,0-3.067,0m5.219-6V13.27H70.483V7.883h1.579V9.341h1.657v1.465Z" transform="translate(-3.333 -0.402)" fill="#5a5b5e"/>
          <path id="패스_243" data-name="패스 243" d="M75.827,15.093H80.96V16.17H76.283v1.481h9.455v2.433h1.619V16.17H82.68V15.093h5.13V13.636H75.827Z" transform="translate(-3.872 -0.696)" fill="#5a5b5e"/>
          <path id="패스_244" data-name="패스 244" d="M86.979,11.475V7.858H85.36V8.69H78.35V7.858H76.758v3.6a.883.883,0,0,0,.848.884h8.526a.882.882,0,0,0,.846-.868M85.36,10.89H78.349v-.846H85.36Z" transform="translate(-3.919 -0.401)" fill="#5a5b5e"/>
          <path id="패스_245" data-name="패스 245" d="M97.874,18.047v-2.53h-1.72v2.53H91.132v1.458h11.733V18.047Z" transform="translate(-4.653 -0.792)" fill="#5a5b5e"/>
          <path id="패스_246" data-name="패스 246" d="M92.062,13.33a.888.888,0,0,0,.886.889l9.086,0V12.785h-8.4V9.4h8.4V7.948H92.057Z" transform="translate(-4.701 -0.406)" fill="#5a5b5e"/>
          <path id="패스_247" data-name="패스 247" d="M55.726,7.883V8.6h-2.5v1.469h2.5v.74h-2.5v1.485h2.5v.978h1.58V7.883Zm-5.384,8.911c0,4.04,6.123,4.04,6.123,0s-6.123-4.028-6.123,0m1.509,0a1.531,1.531,0,0,1,3.062,0,1.531,1.531,0,0,1-3.062,0m-.637-5.447a4.856,4.856,0,0,0,.732-2.607V7.881L46,7.883V9.34h4.319c-.39,2.442-3.238,3.13-4.8,3.429v1.451s4.171-.364,5.7-2.874" transform="translate(-2.324 -0.402)" fill="#5a5b5e"/>
          <path id="패스_248" data-name="패스 248" d="M65.039,8.959V7.874h-1.6V8.959c0,1.564-1.712,2.7-3.168,2.943v1.452s2.827-.233,3.967-2.235v0c1.14,2,3.966,2.235,3.966,2.235V11.9c-1.454-.241-3.165-1.379-3.165-2.943" transform="translate(-3.078 -0.402)" fill="#5a5b5e"/>
        </g>
      </g>
    </g>
  </g>
</svg>
