<svg xmlns="http://www.w3.org/2000/svg" xmlns:xlink="http://www.w3.org/1999/xlink" width="195" height="34" viewBox="0 0 195 34">
  <defs>
    <clipPath id="clip-path">
      <path id="패스_200" data-name="패스 200" d="M15.121,26.839c-6.248,0-13.337-2.28-15.121-7.825,0,1.456.066,4.067.179,5.542.655,8.55,8.529,11.737,14.938,11.739h.007c6.408,0,15.118-3.694,15.118-11.739,0-1.479,0-5.174,0-6.63-1.783,5.546-8.873,8.914-15.119,8.914" transform="translate(0 -17.925)" fill="none"/>
    </clipPath>
    <linearGradient id="linear-gradient" y1="1" x2="0.031" y2="1" gradientUnits="objectBoundingBox">
      <stop offset="0" stop-color="#00aef0"/>
      <stop offset="1" stop-color="#004a9c"/>
    </linearGradient>
  </defs>
  <g id="그룹_910" data-name="그룹 910" transform="translate(17900 -7887)">
    <path id="패스_286" data-name="패스 286" d="M11.473-11.865h-1.4v2.329H7.214a7.085,7.085,0,0,0,.14-1.392H1.321v1.143H5.838C5.588-7.668,3.764-6,.645-5.112L1.2-4.028c2.854-.813,4.833-2.3,5.686-4.409h3.185v1.6H6.75V-5.7h3.325v1.6h1.4ZM2.69-1.392c0,1.6,1.736,2.578,4.443,2.578,2.67,0,4.421-.981,4.429-2.578S9.8-3.948,7.133-3.955C4.426-3.948,2.69-2.981,2.69-1.392Zm1.383,0c0-.937,1.177-1.472,3.06-1.465,1.846-.007,3.023.527,3.031,1.465S8.979.066,7.133.073C5.25.066,4.073-.469,4.073-1.392ZM26.411-9.785v-1.406H25.028V-9.9a4.7,4.7,0,0,1-3.266,4.438l.75,1.113a5.443,5.443,0,0,0,3.229-3.193,5.23,5.23,0,0,0,3.1,2.827l.75-1.1A4.3,4.3,0,0,1,26.411-9.785ZM23.542-1.216c0,1.553,1.685,2.439,4.429,2.432,2.707.007,4.37-.879,4.37-2.432s-1.663-2.439-4.37-2.432C25.227-3.655,23.542-2.754,23.542-1.216Zm1.4,0c-.007-.835,1.126-1.333,3.031-1.333s3.009.5,3,1.333c.007.864-1.111,1.333-3,1.348C26.066.117,24.933-.352,24.94-1.216Zm5.885-2.739h1.4V-7.412h1.913V-8.584H32.223v-3.3h-1.4ZM55.268-5.508H43.248v1.113h5.311v1.406H44.586V-1.86h7.8V1.245H53.8V-2.988H49.942V-4.395h5.326Zm-10.446-1.1h8.887v-4.966h-1.4v1.421H46.2v-1.421H44.822ZM46.2-7.72V-9.111h6.106V-7.72ZM75.311-5.83H67.528V-9.741h7.665v-1.128H66.131v6.152h3.811v3.208H64.63V-.366H76.694V-1.509h-5.37V-4.717h3.987Zm33.452-4.79H99.288v1.128h8.077v.278a26.828,26.828,0,0,1-.456,5.742l1.368.146a30.021,30.021,0,0,0,.486-5.889ZM98.052-.527h12.02V-1.685h-4.517V-5.933h-1.368v4.248h-1.9V-5.933h-1.4v4.248h-2.84Zm33.4-5.1h-12.02V-4.5h3.075v1.523h-1.736v1.1h7.8v3.12h1.412V-2.974H128.35V-4.5h3.1ZM120.729-9.053c-.007,1.582,1.824,2.542,4.708,2.534s4.7-.952,4.708-2.534-1.832-2.542-4.708-2.534S120.722-10.642,120.729-9.053Zm1.442,0c-.007-.908,1.236-1.443,3.266-1.436s3.274.527,3.266,1.436-1.251,1.45-3.266,1.45S122.164-8.137,122.171-9.053Zm1.736,6.079V-4.5h3.075v1.523Zm21.53-6.108v-.161h2.869v-1.113h-2.854v-1.582h-1.4v1.582h-2.869v1.113h2.869v.161a4.265,4.265,0,0,1-3.237,3.9l.662,1.069a5.177,5.177,0,0,0,3.3-2.922,5.105,5.105,0,0,0,3.281,2.585l.662-1.084C146.709-6.094,145.437-7.537,145.437-9.082Zm-2.5,7.866c-.007,1.545,1.692,2.439,4.458,2.432s4.451-.886,4.458-2.432-1.7-2.41-4.458-2.417S142.928-2.754,142.936-1.216Zm1.383,0c-.007-.85,1.14-1.333,3.075-1.333s3.068.483,3.075,1.333S149.328.139,147.394.146,144.311-.366,144.319-1.216Zm3.575-5.845h2.516v3.135h1.4V-11.88h-1.4V-8.2h-2.516Z" transform="translate(-17856.852 7901)" fill="#4d82ff"/>
    <path id="패스_285" data-name="패스 285" d="M11.426-11.88H10.034v3.34H7.588V-7.4h2.446v3.325h1.392ZM.483-5.259l.732,1.113A5.561,5.561,0,0,0,4.5-7.368,5.239,5.239,0,0,0,7.632-4.512l.718-1.1A4.327,4.327,0,0,1,5.186-9.565v-.278H8v-1.128H.923v1.128H3.765v.293A4.668,4.668,0,0,1,.483-5.259ZM2.593-1.23C2.585.33,4.27,1.238,7.031,1.245S11.462.33,11.47-1.23,9.778-3.7,7.031-3.706,2.585-2.791,2.593-1.23Zm1.377,0c-.007-.894,1.135-1.4,3.062-1.392s3.054.5,3.062,1.392S8.943.161,7.031.146C5.1.161,3.962-.344,3.97-1.23Zm20.739-.308H19.362v-2.7h3.926v-6.753H21.911V-8.73H15.466v-2.256H14.074v6.753h3.911v2.7H12.7V-.381H24.709ZM15.466-5.361V-7.6h6.445v2.241ZM35.194-11.88H33.8V1.245h1.392v-6.46h1.978V-6.387H35.194ZM24.75-2.329l.22,1.157A47.084,47.084,0,0,0,33.144-1.7l-.088-1.025c-1.091.154-2.263.249-3.428.308V-3.7A2.528,2.528,0,0,0,32.1-6.079C32.1-7.559,30.8-8.533,28.939-8.54S25.79-7.559,25.8-6.079c-.015,1.267.952,2.161,2.432,2.38v1.333C26.984-2.329,25.783-2.329,24.75-2.329ZM25-9.214h7.866v-1.113H29.628v-1.523H28.236v1.523H25Zm2.109,3.135c0-.842.732-1.377,1.831-1.377s1.824.535,1.831,1.377-.732,1.355-1.831,1.348S27.108-5.244,27.108-6.079Zm14.6-3.384v-.352h2.827v-1.128h-7.1v1.128h2.886v.366a4.514,4.514,0,0,1-3.3,4.189l.718,1.113a5.4,5.4,0,0,0,3.3-3.12A5.12,5.12,0,0,0,44.2-4.556l.659-1.084A4.108,4.108,0,0,1,41.71-9.463ZM38.795-1.245c0,1.56,1.677,2.468,4.409,2.461,2.7.007,4.351-.9,4.351-2.461,0-1.538-1.648-2.439-4.351-2.432C40.472-3.684,38.795-2.783,38.795-1.245Zm1.392,0c-.007-.857,1.121-1.34,3.018-1.333s3,.476,2.988,1.333C46.2-.366,45.086.125,43.2.117S40.179-.366,40.187-1.245ZM46.046-4h1.392V-7.485h1.9V-8.628h-1.9V-11.88H46.046ZM60.208-11.88H58.816V1.274h1.392Zm-10.137,10h6.3v-8.906H54.993v3.369h-3.53v-3.369H50.071Zm1.392-1.143v-3.3h3.53v3.3Zm25-1.45H64.45v1.143h2.988v4.57h1.436v-4.57h3.135v4.57h1.406v-4.57h3.047ZM65.754-8.481c.007,1.75,1.9,2.856,4.673,2.842,2.776.015,4.68-1.091,4.673-2.842.007-1.772-1.9-2.9-4.673-2.9S65.761-10.254,65.754-8.481Zm1.436,0c-.007-1.106,1.289-1.78,3.237-1.787s3.245.681,3.252,1.787c-.007,1.077-1.3,1.743-3.252,1.743S67.182-7.4,67.189-8.481Zm14.323.469V-9.4H84.5v-1.157H77.1V-9.4h3v1.392a6.621,6.621,0,0,1-3.457,5.654l.806,1.1a7.074,7.074,0,0,0,3.369-4.219A6.532,6.532,0,0,0,84.208-1.6l.762-1.084A6,6,0,0,1,81.513-8.013Zm4.644,9.258h1.392V-11.88H86.156ZM96.2-10.884H89.581v1.143h5.251a17.923,17.923,0,0,1-.344,3.34l1.377.132a20.966,20.966,0,0,0,.337-3.882ZM88.79-5.142l.132,1.128a50.219,50.219,0,0,0,8.188-.542l-.088-1.011c-1.318.19-2.769.293-4.175.352V-7.939H91.471v2.769C90.511-5.149,89.6-5.142,88.79-5.142ZM90.782.967H99.7V-.161H92.174V-2.915H90.782Zm7.075-2.988h1.421V-6.533h1.8V-7.705h-1.8V-11.88H97.857ZM112-11.88h-1.392V1.274H112ZM101.839-9.565h4.731v2.549h-4.717v5.142h1.113a38.746,38.746,0,0,0,6.621-.483L109.456-3.5a37.131,37.131,0,0,1-6.182.469V-5.9h4.717v-4.79h-6.152ZM121.052-8.54v-2.241h-1.406V-8.54a6.606,6.606,0,0,1-3.516,5.933l.85,1.172a6.992,6.992,0,0,0,3.391-4.277,6.764,6.764,0,0,0,3.318,3.984l.835-1.1A6.363,6.363,0,0,1,121.052-8.54Zm4.658,9.814H127.1V-11.88H125.71Zm9.4-11.294v-1h-1.465v1c-.007,2.139-2.271,4.146-4.761,4.614l.615,1.157a7.133,7.133,0,0,0,4.893-3.677,7.016,7.016,0,0,0,4.878,3.677l.645-1.157C137.389-5.859,135.111-7.881,135.111-10.02ZM128.446-.483h12.012V-1.641H128.446Zm17.795-10.562h-5v6.328h.85a24.036,24.036,0,0,0,4.834-.337l-.132-1.1a23.262,23.262,0,0,1-4.219.322V-7.4h3.149V-8.481h-3.149V-9.9h3.662ZM143.077,1.084h8.774v-4.5h-8.774Zm1.392-1.128V-2.314h6.021V-.044Zm1.86-7.456h1.626v3.4h1.318V-11.66h-1.318v3.032h-1.626Zm4.2,3.5h1.318V-11.88h-1.318Z" transform="translate(-17856.852 7918)" fill="#8e8e8e"/>
    <rect id="사각형_1562" data-name="사각형 1562" width="35" height="34" transform="translate(-17900 7887)" fill="#fff" opacity="0"/>
    <g id="그룹_840" data-name="그룹 840" transform="translate(-17899 7887)">
      <g id="그룹_834" data-name="그룹 834" transform="translate(0 15.631)" clip-path="url(#clip-path)">
        <rect id="사각형_1559" data-name="사각형 1559" width="30.242" height="18.369" transform="translate(0 0)" fill="url(#linear-gradient)"/>
      </g>
      <path id="패스_201" data-name="패스 201" d="M21.847,1.11A19.564,19.564,0,0,0,15.563,0h-.038C6.953.017.855,5.8.855,13.612a13.785,13.785,0,0,0,.177,2.225c2.484-5.2,8.365-7.284,14.512-7.29a21.718,21.718,0,0,1,6.292.9Z" transform="translate(-0.063)" fill="#95c038"/>
      <path id="패스_202" data-name="패스 202" d="M18.782,17.007a20.064,20.064,0,0,0-.757,4.621,12.106,12.106,0,0,1,7.531-1.59c4.572.349,9.219,3.979,9.219,3.979V16.852a14.56,14.56,0,0,0-9.338-3.64c-3.391-.085-5.8,1.595-6.655,3.8" transform="translate(-1.301 -1.46)" fill="#fc9220"/>
    </g>
  </g>
</svg>
