<svg xmlns="http://www.w3.org/2000/svg" width="34" height="34" viewBox="0 0 34 34">
  <g id="그룹_1141" data-name="그룹 1141" transform="translate(-531 -106)">
    <rect id="사각형_2252" data-name="사각형 2252" width="34" height="34" transform="translate(531 106)" fill="#fff" opacity="0"/>
    <g id="그룹_1139" data-name="그룹 1139" transform="translate(-92 25)">
      <path id="패스_462" data-name="패스 462" d="M17,34h0A17,17,0,1,1,34,17,17,17,0,0,1,17,34" transform="translate(623 81)" fill="#e0e5f9"/>
      <path id="패스_463" data-name="패스 463" d="M37.7,51.625a1.7,1.7,0,1,0,1.7,1.7,1.7,1.7,0,0,0-1.7-1.7" transform="translate(602.3 51.316)" fill="#4269f1"/>
      <path id="패스_464" data-name="패스 464" d="M38.275,31.165A1.275,1.275,0,0,1,37,29.89V20.65a1.275,1.275,0,1,1,2.55,0v9.24a1.275,1.275,0,0,1-1.275,1.275" transform="translate(601.725 69.859)" fill="#4269f1"/>
    </g>
  </g>
</svg>
