<?xml version="1.0" encoding="UTF-8"?>
<svg id="_레이어_2" data-name="레이어 2" xmlns="http://www.w3.org/2000/svg" viewBox="0 0 79 79">
  <defs>
    <style>
      .cls-1 {
        fill: #0f48ba;
      }

      .cls-1, .cls-2 {
        stroke-width: 0px;
      }

      .cls-2 {
        fill: #588cf4;
      }
    </style>
  </defs>
  <g id="_레이어_1-2" data-name="레이어 1">
    <g>
      <path class="cls-1" d="m71.5,33.15h-6.97V7.5c0-4.14-3.36-7.5-7.5-7.5H21.97c-4.14,0-7.5,3.36-7.5,7.5v25.65h-6.97c-4.14,0-7.5,3.36-7.5,7.5v35.85c0,1.38,1.12,2.5,2.5,2.5h27.78c1.38,0,2.5-1.12,2.5-2.5v-21.57c0-.28.22-.5.5-.5h12.44c.28,0,.5.22.5.5v19.07h-4.13c-1.38,0-2.5,1.12-2.5,2.5s1.12,2.5,2.5,2.5h34.41c1.38,0,2.5-1.12,2.5-2.5v-35.85c0-4.14-3.36-7.5-7.5-7.5ZM5,40.65c0-1.38,1.12-2.5,2.5-2.5h6.97v35.85H5v-33.35Zm40.72,8.78h-12.44c-3.03,0-5.5,2.47-5.5,5.5v19.07h-8.31V7.5c0-1.38,1.12-2.5,2.5-2.5h35.06c1.38,0,2.5,1.12,2.5,2.5v66.5h-8.31v-19.07c0-3.03-2.47-5.5-5.5-5.5Zm28.28,24.57h-9.47v-35.85h6.97c1.38,0,2.5,1.12,2.5,2.5v33.35Z"/>
      <path class="cls-2" d="m51.39,17.54h-23.78c-1.38,0-2.5-1.12-2.5-2.5s1.12-2.5,2.5-2.5h23.78c1.38,0,2.5,1.12,2.5,2.5s-1.12,2.5-2.5,2.5Z"/>
      <path class="cls-2" d="m51.39,28.69h-23.78c-1.38,0-2.5-1.12-2.5-2.5s1.12-2.5,2.5-2.5h23.78c1.38,0,2.5,1.12,2.5,2.5s-1.12,2.5-2.5,2.5Z"/>
      <path class="cls-2" d="m51.39,39.83h-23.78c-1.38,0-2.5-1.12-2.5-2.5s1.12-2.5,2.5-2.5h23.78c1.38,0,2.5,1.12,2.5,2.5s-1.12,2.5-2.5,2.5Z"/>
    </g>
  </g>
</svg>