<?xml version="1.0" encoding="UTF-8"?>
<svg id="_레이어_2" data-name="레이어 2" xmlns="http://www.w3.org/2000/svg" viewBox="0 0 74.07 79">
  <defs>
    <style>
      .cls-1 {
        fill: #0f48ba;
      }

      .cls-1, .cls-2 {
        stroke-width: 0px;
      }

      .cls-2 {
        fill: #588cf4;
      }
    </style>
  </defs>
  <g id="_레이어_1-2" data-name="레이어 1">
    <g>
      <path class="cls-1" d="m37.03,40.42c-11.14,0-20.21-9.07-20.21-20.21S25.89,0,37.03,0s20.21,9.07,20.21,20.21-9.07,20.21-20.21,20.21Zm0-35.42c-8.39,0-15.21,6.82-15.21,15.21s6.82,15.21,15.21,15.21,15.21-6.82,15.21-15.21-6.82-15.21-15.21-15.21Z"/>
      <path class="cls-1" d="m2.5,79c-.14,0-.29-.01-.44-.04-1.36-.24-2.27-1.54-2.03-2.9,3.17-17.96,18.73-30.99,36.99-30.99s33.82,13.03,36.99,30.99c.24,1.36-.67,2.66-2.03,2.9-1.36.24-2.66-.67-2.9-2.03-2.75-15.56-16.24-26.86-32.07-26.86S7.71,61.37,4.96,76.93c-.21,1.21-1.27,2.07-2.46,2.07Z"/>
      <path class="cls-2" d="m56.67,79h-7.52c-1.38,0-2.5-1.12-2.5-2.5s1.12-2.5,2.5-2.5h7.52c1.38,0,2.5,1.12,2.5,2.5s-1.12,2.5-2.5,2.5Z"/>
    </g>
  </g>
</svg>