<svg xmlns="http://www.w3.org/2000/svg" xmlns:xlink="http://www.w3.org/1999/xlink" width="60" height="85" viewBox="0 0 60 85">
  <defs>
    <clipPath id="clip-path">
      <rect id="사각형_1652" data-name="사각형 1652" width="59.997" height="84.333" fill="#4d82ff"/>
    </clipPath>
  </defs>
  <g id="그룹_867" data-name="그룹 867" transform="translate(-930 -439)">
    <rect id="사각형_1653" data-name="사각형 1653" width="60" height="85" transform="translate(930 439)" fill="#fff" opacity="0"/>
    <g id="그룹_866" data-name="그룹 866" transform="translate(930 439)">
      <g id="그룹_865" data-name="그룹 865" clip-path="url(#clip-path)">
        <path id="패스_261" data-name="패스 261" d="M45.125,68.522a8.2,8.2,0,1,1,8.2-8.2,8.21,8.21,0,0,1-8.2,8.2m0-13.507a5.306,5.306,0,1,0,5.306,5.306,5.312,5.312,0,0,0-5.306-5.306" transform="translate(-19.104 -26.966)" fill="#4d82ff"/>
        <path id="패스_262" data-name="패스 262" d="M51.458,101.563a1.448,1.448,0,0,1-1.343-.905,12.127,12.127,0,0,0-22.487,0,1.448,1.448,0,1,1-2.684-1.086,15.022,15.022,0,0,1,27.856,0,1.449,1.449,0,0,1-1.342,1.991" transform="translate(-12.851 -46.658)" fill="#4d82ff"/>
        <path id="패스_263" data-name="패스 263" d="M33.93,84.462H6.274A6.281,6.281,0,0,1,0,78.188V21.9a6.281,6.281,0,0,1,6.274-6.274H20.946a1.448,1.448,0,1,1,0,2.9H6.274A3.382,3.382,0,0,0,2.9,21.9V78.188a3.382,3.382,0,0,0,3.378,3.378H33.93a1.448,1.448,0,1,1,0,2.9" transform="translate(0 -8.083)" fill="#4d82ff"/>
        <path id="패스_264" data-name="패스 264" d="M81.964,67.8a1.448,1.448,0,0,1-1.448-1.448V21.9a3.382,3.382,0,0,0-3.378-3.378H62.079a1.448,1.448,0,1,1,0-2.9h15.06A6.281,6.281,0,0,1,83.412,21.9V66.352A1.448,1.448,0,0,1,81.964,67.8" transform="translate(-31.37 -8.083)" fill="#4d82ff"/>
        <path id="패스_265" data-name="패스 265" d="M49.773,17.974H44.079a2.9,2.9,0,0,1-2.89-2.71L40.41,3.08A2.9,2.9,0,0,1,43.3,0h7.253a2.9,2.9,0,0,1,2.89,3.08l-.78,12.184a2.9,2.9,0,0,1-2.89,2.71M43.3,2.9l.78,12.183h5.695L50.553,2.9Z" transform="translate(-20.905 0)" fill="#4d82ff"/>
        <path id="패스_266" data-name="패스 266" d="M34,132.964H30.271a1.448,1.448,0,1,1,0-2.9H34a1.448,1.448,0,0,1,0,2.9" transform="translate(-14.913 -67.297)" fill="#4d82ff"/>
        <path id="패스_267" data-name="패스 267" d="M52.232,132.964H48.5a1.448,1.448,0,1,1,0-2.9h3.734a1.448,1.448,0,1,1,0,2.9" transform="translate(-24.344 -67.297)" fill="#4d82ff"/>
        <path id="패스_268" data-name="패스 268" d="M68.193,132.964h-1.47a1.448,1.448,0,0,1,0-2.9h1.47a1.448,1.448,0,0,1,0,2.9" transform="translate(-33.774 -67.297)" fill="#4d82ff"/>
        <path id="패스_269" data-name="패스 269" d="M79.581,144.238A14.229,14.229,0,1,1,93.81,130.009a14.245,14.245,0,0,1-14.229,14.229m0-25.562a11.333,11.333,0,1,0,11.333,11.333,11.346,11.346,0,0,0-11.333-11.333" transform="translate(-33.813 -59.904)" fill="#4d82ff"/>
        <path id="패스_270" data-name="패스 270" d="M86.809,144.937a1.442,1.442,0,0,1-1.024-.424l-2.948-2.947a1.448,1.448,0,1,1,2.048-2.048l1.924,1.924,5.124-5.124a1.448,1.448,0,0,1,2.048,2.048l-6.148,6.147a1.442,1.442,0,0,1-1.024.424" transform="translate(-42.64 -70.311)" fill="#4d82ff"/>
      </g>
    </g>
  </g>
</svg>
