<svg xmlns="http://www.w3.org/2000/svg" xmlns:xlink="http://www.w3.org/1999/xlink" width="14" height="14" viewBox="0 0 14 14">
  <defs>
    <clipPath id="clip-path">
      <rect id="사각형_1848" data-name="사각형 1848" width="14" height="10.094" fill="#2e66e9"/>
    </clipPath>
  </defs>
  <g id="그룹_940" data-name="그룹 940" transform="translate(-144 -126)">
    <g id="사각형_1847" data-name="사각형 1847" transform="translate(144 126)" fill="#2e66e9" stroke="#707070" stroke-width="1" opacity="0">
      <rect width="14" height="14" stroke="none"/>
      <rect x="0.5" y="0.5" width="13" height="13" fill="none"/>
    </g>
    <g id="그룹_939" data-name="그룹 939" transform="translate(144 127.953)">
      <g id="그룹_938" data-name="그룹 938" transform="translate(0 0)" clip-path="url(#clip-path)">
        <path id="패스_304" data-name="패스 304" d="M2.257,0H.636a.636.636,0,1,0,0,1.273h1.62A.636.636,0,1,0,2.257,0" transform="translate(0 0)" fill="#2e66e9"/>
        <path id="패스_305" data-name="패스 305" d="M9.587,1.273h8.93a.636.636,0,1,0,0-1.273H9.587a.636.636,0,1,0,0,1.273" transform="translate(-5.154 0)" fill="#2e66e9"/>
        <path id="패스_306" data-name="패스 306" d="M2.257,10.4H.636a.636.636,0,1,0,0,1.273h1.62a.636.636,0,1,0,0-1.273" transform="translate(0 -5.986)" fill="#2e66e9"/>
        <path id="패스_307" data-name="패스 307" d="M18.517,10.4H9.587a.636.636,0,1,0,0,1.273h8.93a.636.636,0,1,0,0-1.273" transform="translate(-5.154 -5.986)" fill="#2e66e9"/>
        <path id="패스_308" data-name="패스 308" d="M2.257,20.794H.636a.636.636,0,0,0,0,1.273h1.62a.636.636,0,0,0,0-1.273" transform="translate(0 -11.972)" fill="#2e66e9"/>
        <path id="패스_309" data-name="패스 309" d="M18.517,20.794H9.587a.636.636,0,0,0,0,1.273h8.93a.636.636,0,0,0,0-1.273" transform="translate(-5.154 -11.972)" fill="#2e66e9"/>
      </g>
    </g>
  </g>
</svg>
