<svg xmlns="http://www.w3.org/2000/svg" xmlns:xlink="http://www.w3.org/1999/xlink" width="215" height="209" viewBox="0 0 215 209">
  <defs>
    <clipPath id="clip-path">
      <path id="패스_200" data-name="패스 200" d="M92.947,72.717C54.541,72.717,10.962,58.7,0,24.615c0,8.949.4,25,1.1,34.066,4.027,52.556,52.431,72.147,91.824,72.159h.046c39.393-.011,92.93-22.705,92.93-72.159,0-9.091-.017-31.808-.017-40.756C174.922,52.02,131.342,72.717,92.947,72.717" transform="translate(0 -17.925)" fill="none"/>
    </clipPath>
    <linearGradient id="linear-gradient" y1="1" x2="0.031" y2="1" gradientUnits="objectBoundingBox">
      <stop offset="0" stop-color="#00aef0"/>
      <stop offset="1" stop-color="#004a9c"/>
    </linearGradient>
  </defs>
  <g id="그룹_876" data-name="그룹 876" opacity="0.1">
    <rect id="사각형_1562" data-name="사각형 1562" width="215" height="209" fill="#fff" opacity="0"/>
    <g id="그룹_840" data-name="그룹 840" transform="translate(6.153)">
      <g id="그룹_834" data-name="그룹 834" transform="translate(0 96.084)" clip-path="url(#clip-path)">
        <rect id="사각형_1559" data-name="사각형 1559" width="185.901" height="112.915" transform="translate(0 -0.002)" fill="url(#linear-gradient)"/>
      </g>
      <path id="패스_201" data-name="패스 201" d="M129.893,6.821A120.261,120.261,0,0,0,91.264,0h-.234C38.337.1.855,35.652.855,83.674A84.736,84.736,0,0,0,1.944,97.35C17.212,65.383,53.366,52.573,91.15,52.539a133.5,133.5,0,0,1,38.674,5.527Z" transform="translate(4.017)" fill="#95c038"/>
      <path id="패스_202" data-name="패스 202" d="M22.679,36.56c-3.679,9.49-4.654,28.4-4.654,28.4s16.928-12.028,46.294-9.776c28.106,2.144,56.668,24.462,56.668,24.462V35.6s-21.53-21.467-57.4-22.374c-20.846-.525-35.663,9.8-40.91,23.332" transform="translate(84.78 59.01)" fill="#fc9220"/>
    </g>
  </g>
</svg>
