<?xml version="1.0" encoding="UTF-8"?>
<svg id="_레이어_2" data-name="레이어 2" xmlns="http://www.w3.org/2000/svg" viewBox="0 0 56.33 56.33">
  <defs>
    <style>
      .cls-1 {
        fill: #a3a8b2;
        stroke-width: 0px;
      }
    </style>
  </defs>
  <g id="_레이어_1-2" data-name="레이어 1">
    <path class="cls-1" d="m30.99,28.16L55.74,3.41c.78-.78.78-2.05,0-2.83-.78-.78-2.05-.78-2.83,0l-24.75,24.75L3.41.59C2.63-.2,1.37-.2.59.59S-.2,2.63.59,3.41l24.75,24.75L.59,52.91c-.78.78-.78,2.05,0,2.83.39.39.9.59,1.41.59s1.02-.2,1.41-.59l24.75-24.75,24.75,24.75c.39.39.9.59,1.41.59s1.02-.2,1.41-.59c.78-.78.78-2.05,0-2.83l-24.75-24.75Z"/>
  </g>
</svg>