<svg xmlns="http://www.w3.org/2000/svg" xmlns:xlink="http://www.w3.org/1999/xlink" width="14" height="14" viewBox="0 0 14 14">
  <defs>
    <clipPath id="clip-path">
      <rect id="사각형_1839" data-name="사각형 1839" width="12.629" height="14" transform="translate(0 0)" fill="#2e66e9"/>
    </clipPath>
  </defs>
  <g id="그룹_924" data-name="그룹 924" transform="translate(19817 -7851)">
    <g id="사각형_1836" data-name="사각형 1836" transform="translate(-19817 7851)" fill="#2e66e9" stroke="#707070" stroke-width="1" opacity="0">
      <rect width="14" height="14" stroke="none"/>
      <rect x="0.5" y="0.5" width="13" height="13" fill="none"/>
    </g>
    <g id="그룹_923" data-name="그룹 923" transform="translate(-19816.314 7851)">
      <g id="그룹_922" data-name="그룹 922" transform="translate(0 0)" clip-path="url(#clip-path)">
        <path id="패스_289" data-name="패스 289" d="M11.13,3.6a.685.685,0,0,0-1.044.887A4.946,4.946,0,1,1,6.159,2.744l-.2.2a.685.685,0,1,0,.968.968L8.3,2.54a.685.685,0,0,0,0-.969L6.93.2a.685.685,0,0,0-.968.968l.205.205A6.311,6.311,0,1,0,11.13,3.6" transform="translate(0 0)" fill="#2e66e9"/>
      </g>
    </g>
  </g>
</svg>
