<svg xmlns="http://www.w3.org/2000/svg" xmlns:xlink="http://www.w3.org/1999/xlink" width="14" height="14" viewBox="0 0 14 14">
  <defs>
    <clipPath id="clip-path">
      <rect id="사각형_1840" data-name="사각형 1840" width="14" height="13.568" transform="translate(0 0)" fill="#2e66e9"/>
    </clipPath>
  </defs>
  <g id="그룹_927" data-name="그룹 927" transform="translate(19847 -7851)">
    <g id="사각형_1835" data-name="사각형 1835" transform="translate(-19847 7851)" fill="#fff" stroke="#707070" stroke-width="1" opacity="0">
      <rect width="14" height="14" stroke="none"/>
      <rect x="0.5" y="0.5" width="13" height="13" fill="none"/>
    </g>
    <g id="그룹_926" data-name="그룹 926" transform="translate(-19847 7851.216)">
      <g id="그룹_925" data-name="그룹 925" transform="translate(0 0)" clip-path="url(#clip-path)">
        <path id="패스_290" data-name="패스 290" d="M30.587,31.465a2.143,2.143,0,1,1,2.143-2.143,2.145,2.145,0,0,1-2.143,2.143m0-2.919a.776.776,0,1,0,.776.776.777.777,0,0,0-.776-.776" transform="translate(-23.587 -22.539)" fill="#2e66e9"/>
        <path id="패스_291" data-name="패스 291" d="M5.142,13.569a1.464,1.464,0,0,1-.734-.2L2.592,12.323a1.472,1.472,0,0,1-.539-2.012l.092-.16a5.878,5.878,0,0,1-.488-.845H1.473A1.474,1.474,0,0,1,0,7.833v-2.1A1.474,1.474,0,0,1,1.473,4.264h.185a5.889,5.889,0,0,1,.488-.845l-.092-.16a1.473,1.473,0,0,1,.539-2.012L4.408.2A1.472,1.472,0,0,1,6.42.738L6.512.9a5.81,5.81,0,0,1,.975,0L7.58.738A1.472,1.472,0,0,1,9.592.2l1.816,1.048a1.474,1.474,0,0,1,.539,2.012l-.093.16a5.889,5.889,0,0,1,.488.845h.185A1.474,1.474,0,0,1,14,5.736v2.1a1.474,1.474,0,0,1-1.473,1.473h-.185a5.887,5.887,0,0,1-.488.845l.092.16a1.474,1.474,0,0,1-.539,2.012L9.592,13.371a1.472,1.472,0,0,1-2.012-.539l-.093-.161a5.81,5.81,0,0,1-.975,0l-.093.161a1.462,1.462,0,0,1-.894.686,1.481,1.481,0,0,1-.384.051m2.711-2.314a.683.683,0,0,1,.591.342l.319.552a.107.107,0,0,0,.145.039l1.816-1.048a.107.107,0,0,0,.039-.145l-.319-.552a.683.683,0,0,1,.064-.775,4.524,4.524,0,0,0,.742-1.284.683.683,0,0,1,.639-.443h.637a.107.107,0,0,0,.107-.107v-2.1a.107.107,0,0,0-.107-.107H11.89a.683.683,0,0,1-.639-.443A4.524,4.524,0,0,0,10.509,3.9a.683.683,0,0,1-.064-.775l.319-.552a.107.107,0,0,0-.039-.145L8.909,1.382a.106.106,0,0,0-.145.039l-.319.552a.683.683,0,0,1-.7.333,4.531,4.531,0,0,0-1.485,0,.683.683,0,0,1-.7-.333l-.319-.552a.106.106,0,0,0-.145-.039L3.275,2.43a.106.106,0,0,0-.039.145l.319.552a.683.683,0,0,1-.064.775,4.522,4.522,0,0,0-.742,1.284.683.683,0,0,1-.639.443H1.473a.107.107,0,0,0-.107.107v2.1a.107.107,0,0,0,.107.107H2.11a.683.683,0,0,1,.639.443,4.522,4.522,0,0,0,.742,1.284.683.683,0,0,1,.064.775l-.319.552a.106.106,0,0,0,.039.145l1.816,1.048a.107.107,0,0,0,.145-.039l.319-.552a.683.683,0,0,1,.7-.332,4.531,4.531,0,0,0,1.485,0,.68.68,0,0,1,.111-.009" transform="translate(0 -0.001)" fill="#2e66e9"/>
      </g>
    </g>
  </g>
</svg>
